<mxfile host="Electron" modified="2025-03-04T14:05:11.820Z" agent="Mozilla/5.0 (Windows NT 10.0; Win64; x64) AppleWebKit/537.36 (KHTML, like Gecko) draw.io/21.2.1 Chrome/112.0.5615.87 Electron/24.1.2 Safari/537.36" etag="mTylPIVJSJpAcp0IhAZS" version="21.2.1" type="device">
  <diagram name="Seite-1" id="or-CZFefhoAfM0pNmvbq">
    <mxGraphModel dx="1925" dy="1188" grid="1" gridSize="10" guides="1" tooltips="1" connect="1" arrows="1" fold="1" page="1" pageScale="1" pageWidth="827" pageHeight="1169" math="0" shadow="0">
      <root>
        <mxCell id="0" />
        <mxCell id="1" parent="0" />
        <mxCell id="RJw_9il6E8Ik_d_mUy9y-8" value="&lt;a data-slideid=&quot;&quot; data-shapeids=&quot;4&quot; data-sessionid=&quot;fe0eba0f-a0e0-4777-1f34-02613d9ac00b&quot; class=&quot;CIDbf1ed9f0-512b-47f5-9d6f-baf573279995&quot;&gt;&amp;nbsp;&lt;/a&gt;&lt;img class=&quot;CIDbf1ed9f0-512b-47f5-9d6f-baf573279995&quot; data-from-ppt-online=&quot;true&quot; data-image-height-mu=&quot;11.044776119403&quot; data-image-width-mu=&quot;21.7164179104478&quot; alt=&quot;A diagram of a pulse&#xa;&#xa;AI-generated content may be incorrect.&quot; src=&quot;data:image/jpg;base64,/9j/4AAQSkZJRgABAQEAYABgAAD/2wBDAAUDBAQEAwUEBAQFBQUGBwwIBwcHBw8LCwkMEQ8SEhEPERETFhwXExQaFRERGCEYGh0dHx8fExciJCIeJBweHx7/2wBDAQUFBQcGBw4ICA4eFBEUHh4eHh4eHh4eHh4eHh4eHh4eHh4eHh4eHh4eHh4eHh4eHh4eHh4eHh4eHh4eHh4eHh7/wAARCAISBBMDASIAAhEBAxEB/8QAHwAAAQUBAQEBAQEAAAAAAAAAAAECAwQFBgcICQoL/8QAtRAAAgEDAwIEAwUFBAQAAAF9AQIDAAQRBRIhMUEGE1FhByJxFDKBkaEII0KxwRVS0fAkM2JyggkKFhcYGRolJicoKSo0NTY3ODk6Q0RFRkdISUpTVFVWV1hZWmNkZWZnaGlqc3R1dnd4eXqDhIWGh4iJipKTlJWWl5iZmqKjpKWmp6ipqrKztLW2t7i5usLDxMXGx8jJytLT1NXW19jZ2uHi4+Tl5ufo6erx8vP09fb3+Pn6/8QAHwEAAwEBAQEBAQEBAQAAAAAAAAECAwQFBgcICQoL/8QAtREAAgECBAQDBAcFBAQAAQJ3AAECAxEEBSExBhJBUQdhcRMiMoEIFEKRobHBCSMzUvAVYnLRChYkNOEl8RcYGRomJygpKjU2Nzg5OkNERUZHSElKU1RVVldYWVpjZGVmZ2hpanN0dXZ3eHl6goOEhYaHiImKkpOUlZaXmJmaoqOkpaanqKmqsrO0tba3uLm6wsPExcbHyMnK0tPU1dbX2Nna4uPk5ebn6Onq8vP09fb3+Pn6/9oADAMBAAIRAxEAPwD7LooooAKKKKACiiigAooooAKKKKACiiigAooooAKy/Fv/ACK2q/8AXnL/AOgGtSsvxb/yK2q/9ecv/oJrnxn+71PR/kaUf4kfVHN23h7Q2tombSrUkopJ2dTin/8ACOaD/wBAm1/74rQtP+PSH/rmv8qlrwIYPD8q/dx+5HsOrO/xMyv+Ec0H/oE2v/fFH/COaD/0CbX/AL4rVoq/qWG/59x+5B7Wf8z+8yv+Ec0H/oE2v/fFH/COaD/0CbX/AL4rVoo+pYb/AJ9x+5B7Wf8AM/vMr/hHNB/6BNr/AN8Uf8I5oP8A0CbX/vitWij6lhv+fcfuQe1n/M/vMr/hHNB/6BNr/wB8Uf8ACOaD/wBAm1/74rVoo+pYb/n3H7kHtZ/zP7zK/wCEc0H/AKBNr/3xR/wjmg/9Am1/74rVoo+pYb/n3H7kHtZ/zP7zK/4RzQf+gTa/98Uf8I5oP/QJtf8AvitWij6lhv8An3H7kHtZ/wAz+8yv+Ec0H/oE2v8A3xR/wjmg/wDQJtf++K1aKPqWG/59x+5B7Wf8z+8yv+Ec0H/oE2v/AHxR/wAI5oP/AECbX/vitWij6lhv+fcfuQe1n/M/vMS/8P6HHYXMiaXaqywuykJ0IU11nhv/AJF7Tv8Ar1j/APQRWNqX/INu/wDrhJ/6Ca2PDf8AyL2nf9esf/oIroy+jTpYl8kUvd6K3U5cZKUqau+poUUUV7h5oUUUUAFFFFABRRRQAUUUUAFFFFABRRRQAUUUUAFFFFABRRRQAUUUUAFFFFABRRRQAUUUUAFFFFABRRRQAUUUUAFFFFABRRRQAUUUUAFFFFABRRRQAUUUUAFFFFAHkFpoOi6jqWt3N9pdrczf2tcrvkTJwG4FWv8AhE/DP/QCsf8Av3VjQ/8Aj51v/sMXX/oQrSrg5V2PpnUmtE2Yv/CJ+Gf+gFY/9+6P+ET8M/8AQCsf+/dbVFPlXYXtan8zMX/hE/DP/QCsf+/dH/CJ+Gf+gFY/9+62qKOVdg9rU/mZi/8ACJ+Gf+gFY/8Afuj/AIRPwz/0ArH/AL91tUUcq7B7Wp/MzF/4RPwz/wBAKx/790f8In4Z/wCgFY/9+62qKOVdg9rU/mZi/wDCJ+Gf+gFY/wDfuj/hE/DP/QCsf+/dbVFHKuwe1qfzMxf+ET8M/wDQCsf+/dH/AAifhn/oBWP/AH7raoo5V2D2tT+ZmL/wifhn/oBWP/fuj/hE/DP/AEArH/v3W1RRyrsHtan8zMX/AIRPwz/0ArH/AL90f8In4Z/6AVj/AN+62qKOVdg9rU/mZi/8In4Z/wCgFY/9+63fhJa29nF4gtbSFIYI9VYJGgwFHlR9KZVn4Y/63xH/ANhVv/RUdXTSU0c+LnKVCV32/M7Kiiius8IKKKKACiiigAooooAKKKKACiiigAooooAKKKKACiiigAooooAKKKKACiiigAooooAKKKKACiiigAooooAKKKKACiiigAooooAKKKKACiiigArL8W/8itqv/XnL/wCgmtSsvxb/AMitqv8A15y/+gmufGf7vU9H+RpR/iR9UZ1p/wAekP8A1zX+VS1Faf8AHpD/ANc1/lUteTT+FHqvcKKKKsQUUUUAFFFFAGHf+MPCWn3sljf+J9GtbqI7ZIZr2NHQ+hUnIq6mtaPJB9oTVbFofKWbzBOpXy2OFfOfukggHua86+I+nad4w8Tv4F0TSNM+1yos3iLV/sMTyWVu3SNXKk+fIOB3Vct6VznxYgi0rTPFnhfR7Kws7HT/AA1pi2SCEAp/pjKqs/3ig2g4z6nvWignYydRq57vRXC6JqPibSPiNb+Fde1iDWodR0yS+hmS0WB7Z43VWTC8Mh3DBPPHJNd1UNWLjK4UUUUigooooAKKKKAK+pf8g27/AOuEn/oJrY8N/wDIvad/16x/+gisfUv+Qbd/9cJP/QTWx4b/AORe07/r1j/9BFXg/wDen/h/UwxX8NepoUUUV7B5wUUUUAFFFFABRRRQAUUUUAFFFFABRRRQAUUUUAFFFFABRRRQAUUUUAFFFFABRRRQAUUUUAFFFFABRRRQAUUUUAFFFFABRRRQAUUUUAFFFFABRRRQAUUUUAFFFFAHmWh/8fOt/wDYYuv/AEIVpVm6H/x863/2GLr/ANCFaVcSPo5bhRRRQIKKKKACiiigAooooAKKKKACiilAJoASiiigAooooAKs/DH/AFviP/sKt/6KjqtVn4Y/63xH/wBhVv8A0VHV0/jRhiv4Evl+Z2VFFFdR4gUUUUAFFFFABRRRQAUUUUAFFFFABRRRQAUUUUAFFFFABRRRQAUUUUAFFFFABRRRQAUUUUAFFFFABRRRQAUUUUAFFFFABRRRQAUUUUAFFFFABWX4t/5FbVf+vOX/ANBNalZfi3/kVtV/685f/QTXPjP93qej/I0o/wASPqjOtP8Aj0h/65r/ACqWorT/AI9If+ua/wAqlryafwo9V7hRRRViCiiuO+MHiW88J+EoNYs5PLI1SzgmPk+aTFJKFcKvdiDgY5zTSu7Ck7K52NFchb/EXw+1trEuoRalpEmkLHJdW1/aNHNskOImVed+88DHOeOtPsvH+iyR6h/aNpq2jT2Fr9tmttQsmjlaDOPMRRneM8YHIJAIp8r7C549zLf4SeHP7S1C/tdX8V2Muo3T3dytnrk8KPK3VtqnHt7AAVo3Xw58NXmm3dhqC319HeWEWn3L3N28kk0MchkUM55J3McnqRUdv8R9HLX0eoabrekzWmnSamIr+yMTTWyfedOeccZHBGRxWVL8TZrjxB4TtdM8L641hrs0i+fPZlC0Yi3q6At93oSSPug1XvkXgdR4Z8H6J4ev7jULFLua8njEJuLu6kuJEiBysSlydqA9h+Oa6CuIsPidoN9pM+rW+n669jHN9nimWwZhdTeYY/KiA5dtwPt71meLfimun+Edb1DTdB1UaxpMtulxp17aFJI1mYBZCM8oRnBB68UuWTZSnFI9Korj9V+IWlafcSwNpWu3MlrAlxqItrFpf7PRl3DzsdGxyVGSBzXV2Vzb3tnDeWkyT288ayxSIcq6MMgj2INS00UpJ7EtFFFIYUUUUAV9S/5Bt3/1wk/9BNbHhv8A5F7Tv+vWP/0EVj6l/wAg27/64Sf+gmtjw3/yL2nf9esf/oIq8H/vT/w/qYYr+GvU0KKKK9g84KKKKACiiigAooooAKKKKACiiigAooooAKKKKACiiigAooooAKKKKACiiigAooooAKKKKACiiigAooooAKKKKACiiigAooooAKKKKACiiigAooooAKKKKACiiigDzLQ/+PnW/wDsMXX/AKEK0qzdD/4+db/7DF1/6EK0q4kfRy3CiiigQV47HrnirQbr4ia3psGlTaXputmaeK6aQzTr5UW5YyOEwOmc5NexVzN14L0640jxNprXd2IvEU7z3LDbuiZlVSE46YUdc00zOcW9jjfFHxUu7bX9WstIXT0j0gIHhura4klvZDGJCiNEpWPAYAE5ye2KseLviNqVkkU9hcaDpiPpkd/Ha6kJZbudmUsY/KiGYwMY3Hqe3FdBqXgOKe/vLrTfEetaKuoxpHqEVlIgW52qED5ZSY32gAshBpl98PbSbUb+5sdf1rTIdStY7W/gt5FP2hI02Kd7KXVtpwSDzVXRDVTUztJ8YeJ/EmuafZaFbaTZW9xoNtq0sl4HkZDKzL5YCkZ6ZyfSue8C+JPHMfhrwlpy3OlX1/rl3fqbq6WQiFImY5YZyxzkY44x6V6D4U8HWHh28t7q1u7qd7fSYdKUS7cGKJmZWOAPm+bB7cVU0DwFY6Pd6VNFquoXEek3N1NZQyhNsYnHzISFyVBJIzzz1pXQcs9NTlfGnxM1fw7fX+658NSLp00ccmnI00t1OhKhnLJ8sJ+YkK3Ycnmob7xjrnhfXvH+r6jc21/Y21xYwWFptkGx5kAQEjOF+bLYGSRxXQ6r8L7G+tdY05fEet2uk6tctdz2MDRhBMzBiwYrvIJAO0kir+p+ANL1K81ia6v7/wAjV4oBcW6MqhJoceXOjAblcYHQ446U7oTjUKHw88b32ueIrjQ74Wl5ttftMd/Y2lxBCDu2tEwlA+YZBBB5FR/FHS/DEcsmueKnutUMsAtNK0lGbJn5OYVUgmViR838IHUV0fhzw3NpeoS6jf8AiPV9bu3hECveOqpHGDnCogC7ierEZPrWR4l8Azav4zXxVbeMNa0q8jtRawpbxwOkKZy2zzEYqW7kdelLS5TUuXVXNvwDaavYeCdHs9fmM2qQ2iLdOz7zv9C38RAwCe+M1t1V0m1nstNgtbnULjUZok2vdThRJKfVgoAz9BVqkapWQUUUUhhVn4Y/63xH/wBhVv8A0VHVarPwx/1viP8A7Crf+io6un8aMMV/Al8vzOyooorqPECiiigAooooAKKKKACiiigAooooAKKKKACiiigAooooAKKKKACiiigAooooAKKKKACiiigAooooAKKKKACiiigAooooAKKKKACiiigAooooAKy/Fv8AyK2q/wDXnL/6Ca1Ky/Fv/Irar/15y/8AoJrnxn+71PR/kaUf4kfVGdaf8ekP/XNf5VLUVp/x6Q/9c1/lUteTT+FHqvcKKKKsQVy/xM0K/wDEOg2Vlp3k+bDq1ndv5r7R5cUwd8HHXA4FdRRTTs7iaurHmHxJ+HepeLNV8SyxzWsUF/YWCWhldsNNbTtLtkC8hDwMg55PpWZafD/xKtlrl1o+i6L4S1WfTfsllLDqEt3MXLqzkytxGhC4GFJBOe1exUVSqOxHs0eIR/DTxLNqt9qKaPYaYLrw1e6WY5NZlvZnnlC7XeVx90kHp0712uo+Htdim8A3tjb2t1LoGI72F7jy8o1v5TMjYOSp5xxmu6ooc2wVNI8s/wCEL8X2fwl07w7p9xCl/bak9xdwQ3rQC6tmnkcxLOo3Rkhl5A7EVixfDHxINP8AGvkafpentrdtY/YbYahJPtkgcsyyyuCSW4+Ycc9OK9too9ow9mjxjxD8OdZu/E2ta6vhfR9Vk19IpnS61aWL+zpxEI2U7BiaPgHjB6ivWfDunrpOgafpaLAi2ltHCFgQrGNqgfKCSQvHAJPFXqKUptocYKIUUUVJYUUUUAV9S/5Bt3/1wk/9BNbHhv8A5F7Tv+vWP/0EVj6l/wAg27/64Sf+gmtjw3/yL2nf9esf/oIq8H/vT/w/qYYr+GvU0KKKK9g84KKKKACiiigAooooAKKKKACiiigAooooAKKKKACiiigAooooAKKKKACiiigAooooAKKKKACiiigAooooAKKKKACiiigAooooAKKKKACiiigAooooAKKKKACiiigDzLQ/+PnW/wDsMXX/AKEK0qzdD/4+db/7DF1/6EK0q4kfRy3CiiigQUUUUAFFFFABRRRQAUUUUAFFFFABRRRQAUUUUAFWfhj/AK3xH/2FW/8ARUdVqs/DH/W+I/8AsKt/6Kjq6fxowxX8CXy/M7Kiiiuo8QKKKKACiiigAooooAKKKKACiiigAooooAKKKKACiiigAooooAKKKKACiiigAooooAKKKKACiiigAooooAKKKKACiiigAooooAKKKKACiiigArL8W/8AIrar/wBecv8A6Ca1Ko6/bS3mh31pAAZZreSNATgZKkCsMVFyoTS3s/yNKTSnFvuZFp/x6Q/9c1/lUtUoY/EMcKR/2FGdqhc/bl5wP92nY8Q/9AGP/wADl/8Aia8SFS0UuWX/AIDL/I9RuN9196/zLdFUZ5NcgheabRoIokBZ3fUECqB1JJHFcbpnxFvNf1r+zPB/hWfxDHHIEutRt7tVsYBn5v3zLtkYf3U3VcZ8zsoy/wDAZf5CcorqvvR6BRVXb4h/6AUf/gcv/wATSY8Q/wDQBj/8Dl/+Jpe1/uy/8Bl/kO8e6+9f5luiqmPEP/QBj/8AA5f/AImjHiH/AKAMf/gcv/xNHtf7sv8AwGX+QXj3X3r/ADLdFVMeIf8AoAx/+By//E1jL4h1NvG7+Ef+EfP29NNXUi32xdnlGUxgZx1ypo9p/dl/4DL/ACFePdfev8zpKKqY8Q/9AGP/AMDl/wDiaMeIf+gDH/4HL/8AE0e1/uy/8Bl/kO8e6+9f5luiqmPEP/QBj/8AA5f/AImjHiH/AKAMf/gcv/xNHtf7sv8AwGX+QXj3X3r/ADLdFVMeIf8AoAx/+By//E0Y8Q/9AGP/AMDl/wDiaPa/3Zf+Ay/yC8e6+9f5luiqmPEP/QBj/wDA5f8A4mjHiH/oAx/+By//ABNHtf7sv/AZf5BePdfev8x+pf8AINu/+uEn/oJrY8N/8i9p3/XrH/6CKwLuLxFLaTxDQo8vGyj/AE5e4I9Kh+GnjPTdZh/4R24huNJ8RaZCqXmk3oCzoAMeYvaSM9nUkfQ8V0YFSlXcuVpW6prr5pHNipLkSv1O1ooor2DgCiiigAooooAKKKKACiiigAooooAKKKKACiiigAooooAKKKKACiiigAooooAKKKKACiiigAooooAKKKKACiiigAooooAKKKKACiiigAooooAKKKKACiiigAoorD8aeLdB8H6WNQ16+W3V28uCFVLzXEnZIo1+Z2PoBQBx2h/8fOt/9hi6/wDQhWlWF4ah8Yz2l1qB8Gy2q397Ndxw3d/HHNGjtlQ6gHa2MEjPGcVqfZvGH/QrQf8AgzT/AOJrjs+x9D7SDs1JfeizRVb7N4w/6FaD/wAGaf8AxNH2bxh/0K0H/gzT/wCJos+wc0P5l96/zLNFVvs3jD/oVoP/AAZp/wDE0fZvGH/QrQf+DNP/AImiz7BzQ/mX3r/Ms0VW+zeMP+hWg/8ABmn/AMTR9m8Yf9CtB/4M0/8AiaLPsHND+Zfev8yzRVb7N4w/6FaD/wAGaf8AxNY3irWvEHhyPTZNQ8KgjUdRg06Hy9RQ/vZThc/LwMjk0WfYXPD+Zfev8zoqKrfZvGH/AEK0H/gzT/4mj7N4w/6FaD/wZp/8TRZ9h80P5l96/wAyzRVb7N4w/wChWg/8Gaf/ABNH2bxh/wBCtB/4M0/+Jos+wc0P5l96/wAyzRVb7N4w/wChWg/8Gaf/ABNH2bxh/wBCtB/4M0/+Jos+wc0P5l96/wAyzRVb7N4w/wChWg/8Gaf/ABNH2bxh/wBCtB/4M0/+Jos+wc0P5l96/wAyzVn4Y/63xH/2FW/9FR1m/ZvGH/QrQf8AgzT/AOJrO8NeKk8G+I77SfG2nzaCur3omsL+WRZLOVmRV8oyjhJMrwHxnPGaumnzLQ58VOHsZLmXTqmeq0UAggEHIPQ0V0njBRRRQAUUUUAFFFFABRRRQAUUUUAFFFFABRRRQAUUUUAFFFFABRRRQAUUUUAFFFFABRRRQAUUUUAFFFFABRRRQAUUUUAFFFFABRRRQAUUUUAFFNkdI42kkdURQWZmOAAO5Nee3/xOj1O7l0v4d6PN4uv42KSXML+Vp1s3/TS5I2kj+6gY8HpQB6FLJHDE0srrHGgLMzHAUDqSa87vvieNWu5dL+G+jS+Lb2Nikl4j+Vptu3ffcEYYj+7GGP0pkPw41HxLKt78TtebXACGTRbINb6ZEewZM7pyOOZDjj7or0OytbWxtI7Sytoba3iULHFCgREA7ADgCgDzyH4a33iOZL34na83iAg7k0e1UwaXCfQx53TEeshI/wBkV6JZ21tZ2sdrZ28VvbxLtjiiQIiD0AHAFS0UAFFFFABRRRQAV5zF/wAnM3H/AGJsX/pbJXo1ecxf8nM3H/Ymxf8ApbJQB6NRRRQAUUUUAFFFFABRRRQAVzPjvwTo3i+3ga88+z1KzbfYanZv5d1Zv6o47eqnKnuDXTUUAeZad411vwZfw6F8T/J+zSuIrHxPBHstLknhUuF/5d5T7/I3YjpXpisrKGVgykZBByCKh1Gys9RsZrHULWG6tZ0KSwzIHR1PUEHgivM20TxR8MXNx4QhufEXhEEtLoDybruwXubN2PzoP+eLH/dPagD1Oisbwf4o0Pxbo66roF+l3blijjBWSFx1SRD8yOO6kA1s0AFFFFABRRRQAUUUUAFFFFABRRRQAUUUUAFFFFABRRRQAUUUUAFFFFABRRRQAUUUUAFFFFABRRRQAUUUUAFFFFABRRRQAUUUUAFFFFABRRRQAUVh+NPFug+D9LGoa9fLbq7eXBCql5riTskUY+Z2PoBXFf2P4x+JJ8zxR9q8KeFG+7osE22+vV/6eZV/1Sn/AJ5Ic9mbtQBc1v4g3usapP4c+GljDrmpwt5d3qUrEabpx7+ZIP8AWOP+eaZPqVrQ8GfD2z0fVD4j1y+m8R+KJFKyapeKP3QPVIIx8sKey8nuTXU6LpWm6JpcGl6RY29jY267IoIIwiIPYCrlABRRRQAUUUUAFFFFABRRRQAV5v8AHr/jz8F/9jjpn/ow16RXm/x6/wCPPwX/ANjjpn/ow0AekUUUUAFFFFABRRRQAUUUUAFVdW06w1bTZ9N1Syt72zuEKTQTxh0dT2IPBq1RQB5cdA8XfDf994M8/wAS+GF5fw/czZurRf8Ap0mY/MB/zyc/7rDpXZeCfGGgeMNOe80S8MjQt5dzbSoY7i1k7pLG3zI31H0zW/XG+Nvh/p+vagmvaXeXHh/xPAu2DV7IASEf3JVPyzR/7LZ9iKAOyorzjSfiBqPh/UYPD/xOs4NIu5XEdprMGf7Nv27DceYZD/cf8Ca9HBBAIIIPQigAooooAKKKKACiiigAooooAKKKKACiiigAooooAKKKKACiiigAooooAKKKKACiiigAooooAKKKKACiiigAooooAKKKKACikdlRSzMFUDJJOABXnuqfFC1vL+bR/AOk3HjHVY22SvaOEsbZv+mtyfkGP7q7m46UAehOyojO7BVUZJJwAPWvPNS+KFvf30ukfD3SJ/GGpRsUlmt3EdhbN/01uT8vH91Nze1QR/DzWvFTrdfE/XzqUOdy6Fppa305PZ+d8+P9shePu16HptjZabYxWOnWdvZ2sK7Y4YIwiIPQKOBQB56nw61XxRIt18TtfOrx53Loen7rfTY/ZhnfP9ZDj/Zr0Ows7TT7OKzsbWG1toV2xwwxhEQegA4AqeigAooooAKKKKACiiigAooooAK85i/5OZuP+xNi/wDS2SvRq85i/wCTmbj/ALE2L/0tkoA9GooooAKKKKACiiigAooooAKKKKACiiigDhPGHw/a41l/Ffg3UR4d8U4AknVN1tfqOkd1EOHHo4w69j2p3gvx+uoav/wi3irTz4d8Vom77FK+6G8UdZLaTpKnt95e4ruaxPGfhTQvF+kHTddshcRq3mQyqxSa3kHSSJx8yOOxBoA26K8tj8Q+Jvhq62fjiWbXfC+QsHiSOPM1oOy3sajp/wBNlGP7wHWvTbK6tr20ivLO4iuLeZA8UsThkdT0II4IoAlooooAKKKKACiiigAooooAKKKKACiiigAooooAKKKKACiiigAooooAKKKKACiiigAooooAKKKKACiiigAooooAKKKKACiisPxn4t0Hwhpg1DXr5bdXby4IlUvNcSHokca/M7H0AoA3K861v4g3ur6pP4c+GtjDrmpwt5d3qUpI03T2775B/rHH/PNMn1K1T/sfxj8SSJPFH2rwp4UbldFgm2316v8A08yr/qkP/PJDnszdq9F0TStN0TS4NL0ext7Cxt1CRQQRhEQewFAHLeDPh7ZaPqh8R65fTeI/FEilZNUvFH7oHqkEY+WFPZeT3JrtaKKACiiigAooooAKKKKACiiigAooooAK83+PX/Hn4L/7HHTP/Rhr0ivN/j1/x5+C/wDscdM/9GGgD0iiiigAooooAKKKKACiiigAooooAKKKKAKuradYatps+m6pZwXtlcIUmgnjDo6nsQeDXnB0Dxd8OD53gwz+JfDCnMmgXU2bq0X/AKdJmPzAf88nPsrDpXqNFAGB4J8YaD4w057zRLwu0LeXdW0qGO4tZO6Sxt8yN9R9M1v1xvjb4f6fr2oJr2l3k/h/xPAu2DV7EASEf3JlPyzR/wCy2fYisrSfiBqPh/UYPD/xOs4NIu5WEVprMGf7Nv27DceYJD/cf8CaAPR6KAQQCCCD0IooAKKKKACiiigAooooAKKKKACiiigAooooAKKKKACiiigAooooAKKKKACisz/hIdB/6DWn/wDgQn+NH/CQ6D/0GtP/APAhP8a5/rmH/wCfi+9Gnsan8r+406KzP+Eh0H/oNaf/AOBCf40f8JDoP/Qa0/8A8CE/xo+uYf8A5+L70Hsan8r+406KzP8AhIdB/wCg1p//AIEJ/jR/wkOg/wDQa0//AMCE/wAaPrmH/wCfi+9B7Gp/K/uNOisz/hIdB/6DWn/+BCf41xfir4uaHY6q/h/w3A3iTXV4eG3lWO2tz6zXDfInrgZb2prFUH9tfeg9lP8AlZ6MxCqWYgADJJ7V59q3xQsrjUZdF8C6Xc+MdXjO2UWTBbO2b/ptcn5F+i7m9qwl0GTxY3n/ABN8dafcWhORoGkXfkWIHpK+RJP+JVePu16DpF/4Q0jT4tP0q80axs4V2xwW8kcaIPZRwKX1zD/8/F96D2NT+V/cckPh7rnixhcfE7xB9utydw0HSy0Gnr7SHPmT/wDAiF/2a9C0vT7HS7CKw0yzt7K0hXbFBBGERB6ADgVV/wCEh0H/AKDWn/8AgQn+NH/CQ6D/ANBrT/8AwIT/ABo+uYf/AJ+L70Hsan8r+406KzP+Eh0H/oNaf/4EJ/jR/wAJDoP/AEGtP/8AAhP8aPrmH/5+L70Hsan8r+406KrWN/Y3ys1leQXKocMYpA2D74qzW0ZxmuaLuiGmnZhRRRVCCiqN3rGk2k5gutTs4JV6pJMqsPwJqL/hIdB/6DWn/wDgQn+NYPFUIuzmvvRoqU3tFmnRWZ/wkOg/9BrT/wDwIT/Gj/hIdB/6DWn/APgQn+NL65h/+fi+9B7Gp/K/uNOisz/hIdB/6DWn/wDgQn+NH/CQ6D/0GtP/APAhP8aPrmH/AOfi+9B7Gp/K/uNOvOYv+Tmbj/sTYv8A0tkrs/8AhIdB/wCg1p//AIEJ/jXn0esaT/w0dPd/2nZ/Zz4QijEvnLs3/bJDtznGcc4o+t0P5196D2VT+VnqlFZn/CQ6D/0GtP8A/AhP8aP+Eh0H/oNaf/4EJ/jR9cw//Pxfeg9jU/lf3GnRWZ/wkOg/9BrT/wDwIT/Gj/hIdB/6DWn/APgQn+NH1zD/APPxfeg9jU/lf3GnRWZ/wkOg/wDQa0//AMCE/wAaP+Eh0H/oNaf/AOBCf40fXMP/AM/F96D2NT+V/cadFUrPV9KvJhDaalaTykZCRzKx/IGrtawqQqK8HdeREouLs0FFFFWIKKrX2oWFgE+3Xlvbb87fNkC7sdcZqr/wkOg/9BrT/wDwIT/GsZ4mjB8sppP1RapzaukadFZn/CQ6D/0GtP8A/AhP8aP+Eh0H/oNaf/4EJ/jU/XMP/wA/F96H7Gp/K/uNKREkjaORVdGBVlYZBB6givMb3wdr3gS6l1j4Zqk+mu5lvPC08m2CQk/M9q5/1Eh/u/cb0B5rvP8AhIdB/wCg1p//AIEJ/jR/wkOg/wDQa0//AMCE/wAaPrmH/wCfi+9B7Gp/K/uM/wAC+NNE8YWc0mmySw3lq/l32n3SeVdWcn9ySM8j2PQ9QTXR153460Pwn4hvIdc03xNa6D4ntV22mr2c6eYB/wA85VJxLEe6N+GDzVfwd8TlTWU8KeOW0+w1vaTb31pNvsNRUdWjf/lm/rG/I7EihYug9pr70Hsp/wArPTKKzP8AhIdB/wCg1p//AIEJ/jR/wkOg/wDQa0//AMCE/wAaPrmH/wCfi+9B7Gp/K/uNOisz/hIdB/6DWn/+BCf40f8ACQ6D/wBBrT//AAIT/Gj65h/+fi+9B7Gp/K/uNOisz/hIdB/6DWn/APgQn+NH/CQ6D/0GtP8A/AhP8aPrmH/5+L70Hsan8r+406KzB4g0IkAazp5JOAPtC/41p1pTrU6nwST9GTKEo/ErBRRRWhIUUUUAFFFFABRRRQAUUUUAFFFFABRRRQAUUVR1XWNJ0oxjU9Ts7IyZ2efMqbsdcZPNDdhxi5OyReorE/4S/wAKf9DJpH/gYn+NH/CX+FP+hk0j/wADE/xqeePc09hV/lf3G3RWJ/wl/hT/AKGTSP8AwMT/ABo/4S/wp/0Mmkf+Bif40c8e4ewq/wAr+426KxP+Ev8ACn/QyaR/4GJ/jR/wl/hT/oZNI/8AAxP8aOePcPYVf5X9xt0VyXiT4k+B/D+jzapqHiTTzDEPuQSiWR2PRURclmJ4AArgDq03xIIk8UeJbLwr4UflNGt9RRb69X/p5lU/ulP/ADzQ5x1btRzR7i9jU/lf3HT618QbzV9Vn8OfDWxh1zU4W8u71KViNO05u/mSD/WOP+eaZPqRWh4L+Htno+qHxHrt9N4j8Uyrtk1S8UfugeqQRj5YU9l5Pcmruia14C0TS4NL0fVtAsLG3XZFBBcRoiD2ANXf+Ev8Kf8AQyaR/wCBif40c8e4/YVf5X9xt0Vif8Jf4U/6GTSP/AxP8aP+Ev8ACn/QyaR/4GJ/jRzx7h7Cr/K/uNuisT/hL/Cn/QyaR/4GJ/jTovFnheWRY4/EWlO7kKqrdoSSegHNHNHuHsKn8r+42aKKKoyCiiigAoqnqmq6ZpSI+p6ha2SyEhDPKqBiPTJ5qh/wl/hT/oZNI/8AAxP8aTkl1NI0pyV1Fm3RWJ/wl/hT/oZNI/8AAxP8aP8AhL/Cn/QyaR/4GJ/jS549x+wq/wAr+426KxP+Ev8ACn/QyaR/4GJ/jR/wl/hT/oZNI/8AAxP8aOePcPYVf5X9xt15v8ev+PPwX/2OOmf+jDXW/wDCX+FP+hk0j/wMT/GvPfjf4k8PXdp4QFrrmnTGLxbpssnl3KtsRZDljg8AdzRzR7h7Gp/K/uPXaKxP+Ev8Kf8AQyaR/wCBkf8AjR/wl/hT/oZNI/8AAxP8aOePcPYVf5X9xt0Vif8ACX+FP+hk0j/wMT/Gj/hL/Cn/AEMmkf8AgYn+NHPHuHsKv8r+426KxP8AhL/Cn/QyaR/4GJ/jR/wl/hT/AKGTSP8AwMT/ABo549w9hV/lf3G3RWIvi7wqzBV8R6SSTgD7Yn+NbY5GR0ppp7EShKPxKwUUUUyQooqpqmp6dpcKzalf21nG7bVeeUICeuAT34ouNJt2RborE/4S/wAKf9DJpH/gYn+NH/CX+FP+hk0j/wADE/xqeePc09hV/lf3G3VXVtOsNW02fTdUs4L2yuEKTQTxh0dT2IPBrO/4S/wp/wBDJpH/AIGJ/jR/wl/hT/oZNI/8DE/xo549w9hV/lf3HEnQPF3w4Jm8GmfxL4YXl/D9zNm6tF/6dJmPzKP+eTn2Vh0rsvBPjDQPGOnPeaJeGRoW8u5tpUMdxayd0ljb5kb2I+mak/4S/wAKf9DJpH/gYn+NcZ4207wJr2oJr2l+MLDw/wCJ4F2wavY3cYkI/uSoTtmj/wBlvwIo549w9hV/lf3Hp1FeUeF/i3bWesQ+GPHl3pNrqMny2mq2FwJNPvse+cwyf7D/AIE13n/CX+FP+hk0j/wMT/Gjmj3F7Gp/K/uNuisT/hL/AAp/0Mmkf+Bif40f8Jf4U/6GTSP/AAMT/Gjnj3H7Cr/K/uNuisT/AIS/wp/0Mmkf+Bif40f8Jf4U/wChk0j/AMDE/wAaOePcPYVf5X9xt0Vif8Jf4U/6GTSP/AxP8aP+Ev8ACn/QyaR/4GR/40c8e4ewq/yv7jbopEZXRXRgysMgg5BHrS1RkFFFFABRRRQAUUUUAFFFFABRRRQBw3hO3t38NaczQRMxgXJKAk1qfZbX/n2h/wC/YrP8If8AIsad/wBcFrVr5jB04/V6en2V+R7lVvnl6kX2W1/59of+/Yo+y2v/AD7Q/wDfsVLRXT7OHYi7Ivstr/z7Q/8AfsUfZbX/AJ9of+/YqWij2cOwXZF9ltf+faH/AL9ikFpaDOLWAZOTiMc1NRR7OHYLsi+y2v8Az7Q/9+xR9ltf+faH/v2Kloo9nDsF2RfZbX/n2h/79ij7La/8+0P/AH7FS0Uezh2C7Ivstr/z7Q/9+xR9ltf+faH/AL9ipaKPZw7BdkfhRFTW9aVFVVzBwowPuV0lc74X/wCQ7rX1g/8AQK6Ku/LFbD/OX/pTPPxf8V+i/JBRRRXecxyawwya5rBkijci4TBZQf8AlktT/ZbX/n2h/wC/YqOH/kN6z/18J/6KWrNfO0oRaldfal/6Uz2U3Zei/JEX2W1/59of+/Yo+y2v/PtD/wB+xUtFaezh2C7Ivstr/wA+0P8A37FH2W1/59of+/YqWij2cOwXZF9ltf8An2h/79ij7La/8+0H/fsVLRR7OHYLsi+y2v8Az7Q/9+xR9ltf+faH/v2Kloo9nDsF2RfZbX/n2h/79ij7La/8+0P/AH7FS0Uezh2C7Ivstr/z7Q/9+xR9ltf+faH/AL9ipaKPZw7BdlWCKKPxFpflxRpky52qB/yzNdVXMJ/yMWl/70v/AKLNdPXXliSVW383/tsTixvxR9P1YUUUV6ZxnNeKUSTxFo6yIrr5VxwwyOiUfZbX/n2h/wC/YpfE3/IyaP8A9crj+SVJXz8oReIrXX2l/wCkRPWpN+yh6fqyL7La/wDPtD/37FH2W1/59of+/YqWiq9nDsXdkX2W1/59of8Av2KPstr/AM+0P/fsVLRR7OHYLsi+y2v/AD7Q/wDfsUn2W14/0WDjp+7FTUUezh2C7Ivstr/z7Q/9+xR9ltf+faH/AL9ipaKPZw7BdkX2W1/59of+/Yo+y2v/AD7Q/wDfsVLRR7OHYLsi+y2v/PtD/wB+xR9ltf8An2h/79ipaKPZw7BdmR4nt7ddAu2WCJWCjBCAEfMK7ZPuD6Vxvir/AJF68/3R/wChCuyT7g+lbZfFLE1LL7Mfzkc2MfuR9X+gtFFFeweeFFFFABRRRQAUUUUAFFFFABRRRQAUUUUAFcP45iim8Y6SssSSL9huTh1BH34vWu4rivGn/I5aV/14XP8A6HFWVb4DswH8Zej/ACZS+xWX/Pnbf9+V/wAKPsVl/wA+dt/35X/Cp6K57Hr8z7kH2Ky/587b/vyv+FH2Ky/587b/AL8r/hU9FFg5n3IPsVl/z523/flf8KPsVl/z523/AH5X/Cp6KLBzPuVzY2J62Vqf+2K/4Uv2Ky/587b/AL8r/hU9FFg5n3IPsVl/z523/flf8KPsVl/z523/AH5X/Cp6KLBzPuQfYrL/AJ87b/vyv+FH2Ky/587b/vyv+FT0UWDmfcg+xWX/AD523/flf8KzvElrax6Szx2sCMJocMsYBH71fatiszxP/wAgZ/8ArtD/AOjVpNaFQk+Zanp1FFFdx80FFFFAHGfEGOOXXdBWWNJFxc8MoI+6vrVD7FZf8+dt/wB+V/wrS8ef8h/Qfpc/+grVSuSfxs93DNqhD5/myD7FZf8APnbf9+V/wo+xWX/Pnbf9+V/wqeipsbcz7kH2Ky/587b/AL8r/hR9isv+fO2/78r/AIVPRRYOZ9yD7FZf8+dt/wB+V/wo+xWX/Pnbf9+V/wAKnoosHM+5B9isv+fO2/78r/hR9isv+fO2/wC/K/4VPRRYOZ9yD7FZf8+dt/35X/Cj7FZf8+dt/wB+V/wqeiiwcz7kH2Ky/wCfO2/78r/hR9isv+fO2/78r/hU9FFg5n3MbxTaWi+G9QZLW3VhAxBESgj9K9Rh/wBSn+6P5V5p4r/5FnUf+vdq9Lh/1Kf7o/lWtHdnDmDbhD1f6D6KKK6DygrjPiYiSXXh1JEV1OoNlWGQf3MnauzrjviR/wAfvhz/ALCDf+iZKzq/CzrwX8ePz/IzvsVl/wA+dt/35X/Cj7FZf8+dt/35X/Cp6K5rHscz7kH2Ky/587b/AL8r/hR9isv+fO2/78r/AIVPRRYOZ9yD7FZf8+dt/wB+V/wo+xWX/Pnbf9+V/wAKnoosHM+5XNjYnrZWp/7Yr/hS/YrL/nztv+/K/wCFT0UWDmfcg+xWX/Pnbf8Aflf8KPsVl/z523/flf8ACp6KLBzPuQfYrL/nztv+/K/4UfYrL/nztv8Avyv+FT0UWDmfcg+xWX/Pnbf9+V/wrP8AElnZr4d1NltLcEWcpBESgj5D7Vr1n+Jf+Rb1T/rzm/8AQDSa0KhJ8y1O/wBC/wCQJYf9e0f/AKCKuVT0L/kCWH/XtH/6CKuV2rY+cn8TCiiimSFFFFABRRRQAUUUUAFFFFAHFeEP+RY07/rgtatZXhD/AJFjTv8ArgtatfN4L/dqf+Ffke3V+OXqwooorpICsPxf4p0vwtb2U2pi6c310LS2jtoGlkllKkhAq8knaa3K5fx1ol/q+q+E7myWJo9L1pLy53vtIiEUikr6nLDinG19SZNpaFXVfiRoWmmfz7HXnFpAk+oNFpkrixVl3DziB8pC8kckDrVaL4iWo8eavot1aywaPp+kw6j/AGo0TeSVfeSxfptwo2+pyK5b4jeCfGniHUPFNsbYaja6jDs0mVtae2trNTFtKyW6f6xt2TuOc5AOAKl1z4eeINWtdS0iSK3htdX8KWelyXQuBm1ubfccFBy6MSBlenNaqMLGTlO53fhzxppGuakumx2+qWF3LAbm3i1Cye3NzCMZePcPmAyM9xkcV0leWfD3wVf2Pi6y1i/8K2ekfYrSSIzNrM19JJK4APlAnCJgc7hk8DivU6zmknoaQba1CiiipLCiiigBvhf/AJDutfWD/wBAroq53wv/AMh3WvrB/wCgV0VdmW/wPnL/ANKZwYv+K/RfkgooorvOY5aH/kN6z/18J/6KWrNVof8AkN6z/wBfCf8Aopas18/R2l/il/6Uz2Oi9F+SCiiitQCuU+K3iufwZ4Pk1u202bUJRcQQiKOMvgPIqknHPQnHvgV1dct8VtF1LxB4GvNN0iOKW+MsE0McsmxZDHKj7d3bIUjNONrq5Mr2djNl+IGmaTda1ca1qE/2aC/tLOG1Gnss1tJNEGWNsEmRmPoOCcU2T4seFokvDPb65C+nyBdSjk0uUNYBsbXmGPkQg5B9MntWPqHgzxJqGvX+qtZ20AvPEulaqIjchikUEQWUEgYLBuB69aueJPB2uX1t8TY7eO3LeI4IU07dMBuK26xnf/d+YGtLQMk5m/rvj7QdIv7i0kj1K8+yRJNfTWVjJPFZxsMq0rKMLlfmx1xz0rpraaG5torm3lSWGVBJHIhyrqRkEH0IrxfXvhnqyeINbvIPD9vrqazHC6PJrUtotpKsCxMsiKf3kfyggrz1FeveH9PXStB0/S0SJFtLaOALECEG1QMLkk444yc4qZKKSsXBybdy9RRRUGgUUUUAQJ/yMWl/70v/AKLNdPXMJ/yMWl/70v8A6LNdPXTlv/L3/F/7bE48Z8UfT9WFFFFekcZzfib/AJGTR/8ArlcfySpKj8Tf8jJo/wD1yuP5JUleC/8AeK3+Jf8ApET1aX8KHp+rCqWvapZ6Jol7rGoOyWllA9xOyrkhFGSQO/Aq7WD8RdLvNc8Ba9o2nqjXd9p81vAHbapdkIGT2GTWi3KexnD4h6K1hZ3Udjrksl+5Fjapp0huLpAoYyJHjJjwQdxwORT5fiF4bXR7PUIXvrl7y5e1gsYLR2u2nTO+Mw43Ky4O7OMVzPj/AMBX+qaj4Y1qHTl1VtL097G608ai9mzKwQ745VwMhl6Hgg+1YJ0WbwHd+Gtea00XTtSa+vs6ZJqTrHMk6KCDdS5UzAIpycBuQK0UYsxc5I9B0b4jeGdW8kWkl4Gl1U6QEmtWjZboRmQowbkYAOT6iqvjLxqbW9t9P0WUfarfxDY6bqAlhyAk43EKT32kc9q4Lwnp/iTxFaah4q02z025u7bxs2pRW0d3iC6iW3ELLHNjBI3H5sbSVNbY8HeMNQ1e+1bUbGwtnu/FGnaosMd3v8u3giVXBbHLjHbg9qfLFMOaTR1kvxF8PR6mLRotV+zfbhp/9o/YJPsYuC2wR+bjH3vlz0zxms/xH8RdN/s/X4dKub20n0iY29zqD6Y81tbyq6AoegYkMMAHvmuK1rwB471UhdQs1vr6DWo70ahNrj+Q8CXIkCRWw+WNggxyMcHkk102q+CteuPh/wCNtFiitvtmsa3Ne2YMwCtE0sbAsexwp4pcsFYfNJlyy+JluvifxLpur6XfWVlpOoWtjFdm2bY7TBQGZugBZhg/3SDXY22s2Nx4hvdChZ3vLGGKa4wvyoJM7Bn+8QpOPTFcD4g0EW83xDbxNJZWXhzXYIZY9Sku1TyZEhEe1lPQhlDA554HWtT4H2epjwWmv69g61rzi+vCAeBtCxqM842KDj/apSStccZSvY7uiiiszUzPFX/IvXn+6P8A0IV0dzqtva6vp+lSQ3LTXySNG6Qlo18sAne3Rc54z1rnPFX/ACL15/uj/wBCFdkn3B9K0wP+81P8Mfzkc2L+CPq/0MGx8WafeRaTJHZ6mg1SeWGESWbqUaPdkyZ+4DtOCeuR61oaFq1vrFrLc20N1EkdxJbkXEJjYsjFSQD1UkcHuOav0V65wBRRRQAUUUUAFFFFABRRRQAUUUUAFFFFABXFeNP+Ry0r/rwuf/Q4q7WuK8af8jlpX/Xhc/8AocVZVvhOzAfxl6P8mQ0UUVznrBRRRQADk4rkYfiJ4dlg1G5VdT+yadK8E9z9hkMZmSTyzEhA+d92MAetdevDA+9ebnwv4stPhzqGk6XLFb6nNrU94BFc+WZbd7guUWXH7t2Q43djTViJNrYs+JfiVaaf4W1/ULPSdVGqaRbLcNp97ZPFIVc4STB6pkHJHTFaVx480q2itlmsdZmu3s0vLm2ttPklktImH3pQo+TocDqQK4Zfh54juD4tdNNg09NY0JLK2S41Z7uUTLIzfvZGz1z1HAqXWfAut3PiG48QSeGo9Rk1LT7eKW0/tx7Y2U8SFOWT5ZIyCDxyOfWqsjLmqHrOnXlrqNhb6hYzpcWtxGJYZUOVdSMgip6yPBmk/wBg+FNM0fyraE2lusbR227ylbqQu4lsZJ6nNa9Qbq9tQooooGFZnif/AJAz/wDXaH/0atadZnif/kDP/wBdof8A0atJ7FQ+JHp1FFFdx82FFFFAHH+PP+Q/oP0uf/QVqpVvx5/yH9B+lz/6CtVK5J/Gz3MN/Ah8/wA2FFFFSbBTZX8uJ5CjvsUttRcs2B0A7mnUqnDCgDzfwf8AEKbXrTw/qF4kuki9N8ZbOWyYm4WFSco5PyhQMnrk5FXrT4qeFroWRgi1lxqMZk04jTZcXxH3lh4+Zh3+hNYOg+DPFEEPh61u7K0iXRxqkLSLdhhMs6MInAxkZLYIPTGa19B8J6xZx/DdZo7cHw9bSx6htlB2s0AQbP73zA1bsYJz/r5Gunj7w/JotpqVv9vuGvLiS1gsorR2u2mjz5ieVjIK4Oc8Ctfw5rmn6/Yvd6e0w8qVoZ4Z4milgkXqjo3KkZH5ivL9T+GusTS22pyWMN/LaazqNwbBdQa2M9vcsCrLKuNrjaDg8dRXbfDHw9N4f0u++0aXa6ZNe3ZnNvDdPcsq4Cr5kjk7nwOSMDoKTSsVGU29UdZRRRUmoUUUUAZniv8A5FnUf+vdq9Lh/wBSn+6P5V5p4r/5FnUf+vdq9Lh/1Kf7o/lWtHdnDmHwQ9X+g+iiiug8sK474kf8fvhz/sIN/wCiZK7GuO+JH/H74c/7CDf+iZKzq/CdWC/jr5/kVaKKK5j2AJABJIAHJJ7Vy+mePNA1HULa1gGoJDeStDZXs1m6Wt3IM/LHKRhicHHrjjNdHewLdWc9qzFVmiaMsOoDAjP614/4N+GupaVPoNjeeHLF00edJH1N9YmkWZY87Gjt8/JIePvfKOetUkjObkmrHeWfj3w9eSWtvaNdz3txNPALJICZ42gz5m9OqgccnruXHWsnwl8SrbUvB9hrOp6XqNve31zNb21hBZu8twUdhmNOpAUDc3QHNUvDPhLxRpvj1/HNxFYte63I8GsWSSLttbYf6ho3x87rtG/+9u9hWG3w68QPpPh/7ZpMF5NoFzexG1j1QwC9gncuJEkXGxhx8rdeadkRzT/r5Hd3HxC8OQ6daXhOoO13etYR2qWbm5FyqljC0WNytgd6WX4g6DFeNbyQasqRSxwXVx9gkMNrNIFKxyuBhW+ZcjtkZrmtA8C6pZXOg3i6TYad5GvyajdwR3rzskRgaNS0jk+ZJ0zjA/KofGXgvxJfeKr/AFHQ9Ng06+uJ4mg1uz1RoAIxtyLm2ORMwwR05GOmKLIOadrnTr4zsNO/tdtT1CS8aLWW061traxbzjJsBEKqMmVhkndwMfSnS/EXwzDpLajcy3tv5d8mnzW0to63ENw4yiNHjd83b1yMVz8ng7xJZ69P4ksYLO5u7fxHcajb2klxsW5t5oBEw3YwjjkjPHHvTbjwf4m1TV5PEV9a2VpeXeu6fdvZJchxBbWyuMl8YeQ7ycD2FFkHNM7bwx4m07xBJewWsd7bXdi6pdWt5btDNFuGVJVuxHINbVc5o2j31r8QvE2tzLH9j1GCzS3IfLExIwbI7ckYro6lmsb21Cs/xL/yLeqf9ec3/oBrQrP8S/8AIt6p/wBec3/oBqXsaQ+JHf6F/wAgSw/69o//AEEVcqnoX/IEsP8Ar2j/APQRVW+utfj1O6is9JtZrJLAy28z3W1pLrJxCV2/KuMHfk9eldq2PnZ/EzWorDtbzxM1xYrcaJZxxSacZbt1vdxhu/lxCo2/MnLfPx0HHNXtAm1O40a0n1myhsdReMG4t4ZvNSJ+6h8DcPfApkl6iiigAooooAKKKKACiiigDivCH/Isad/1wWtWsrwh/wAixp3/AFwWtWvm8F/u1P8Awr8j26vxy9WFFFFdJAUUUUAFFFFABRRRQAUUUUAFFFFADfC//Id1r6wf+gV0Vc74X/5DutfWD/0Cuirsy3+B85f+lM4MX/FfovyQUUUV3nMctD/yG9Z/6+E/9FLVmq0P/Ib1n/r4T/0UtWa+fo7S/wAUv/Smex0XovyQUUUVqAUUUUAFFFFABRRRQAUUUUAFFFFAECf8jFpf+9L/AOizXT1zCf8AIxaX/vS/+izXT105b/y9/wAX/tsTjxnxR9P1YUUUV6RxnN+Jv+Rk0f8A65XH8kqSo/E3/IyaP/1yuP5JUleC/wDeK3+Jf+kRPVpfwoen6sKKKKssKgvrO0vrZrW+tYLqBvvRTRh1P1B4qeigBkEUUEKQwRJFEg2oiKFVR6ADpT6KKACiiigCK8tba8t2t7y3huIWIJjlQOpwcjg8daloooAKKKKAMzxV/wAi9ef7o/8AQhXZJ9wfSuN8Vf8AIvXn+6P/AEIV2SfcH0rTA/7zU/wx/ORzYv4I+r/QWiiivXOAKKKKACiiigAooooAKKKKACiiigAooooAK4rxp/yOWlf9eFz/AOhxV2tcV40/5HLSv+vC5/8AQ4qyrfCdmA/jL0f5MhooornPWCiiigAooooAKKKKACiiigAooooAKzPE/wDyBn/67Q/+jVrTrM8T/wDIGf8A67Q/+jVpPYqHxI9OoooruPmwooooA4/x5/yH9B+lz/6CtVKt+PP+Q/oP0uf/AEFaqVyT+NnuYb+BD5/mwoooqTYKKKKACiiigAooooAKKKKACiiigDM8V/8AIs6j/wBe7V6XD/qU/wB0fyrzTxX/AMizqP8A17tXpcP+pT/dH8q1o7s4cw+CHq/0H0UUV0HlhXHfEj/j98Of9hBv/RMldjXHfEj/AI/fDn/YQb/0TJWdX4TqwX8dfP8AIq0UUVzHsBRRRQAUUUUAFFFFABRRRQAUUUUAFZ/iX/kW9U/685v/AEA1oVn+Jf8AkW9U/wCvOb/0A0nsVD4kd/oX/IEsP+vaP/0EVcqnoX/IEsP+vaP/ANBFXK7VsfOz+JhRRRTJCiiigAooooAKKKKACiiigDmLXwnPa20dtb+IL+OKNdqKI4+B/wB81J/wjd7/ANDJqH/fuL/4mujorzllWFirJO3+KX+Z0vGVn1/Bf5HOf8I3e/8AQyah/wB+4v8A4mj/AIRu9/6GTUP+/cX/AMTXR0VX9mYbs/8AwKX+YfW6vf8ABf5HOf8ACN3v/Qyah/37i/8AiaP+Ebvf+hk1D/v3F/8AE10dFH9mYbs//Apf5h9bq9/wX+Rzn/CN3v8A0Mmof9+4v/iaP+Ebvf8AoZNQ/wC/cX/xNdHRR/ZmG7P/AMCl/mH1ur3/AAX+Rzn/AAjd7/0Mmof9+4v/AImj/hG73/oZNQ/79xf/ABNdHRR/ZmG7P/wKX+YfW6vf8F/kc5/wjd7/ANDJqH/fuL/4mj/hG73/AKGTUP8Av3F/8TXR0Uf2Zhuz/wDApf5h9bq9/wAF/kc5/wAI3e/9DJqH/fuL/wCJo/4Ru9/6GTUP+/cX/wATXR0Uf2Zhuz/8Cl/mH1ur3/Bf5GXoWj/2XJcyvez3ctwVLvKFB+UYHQCtSiiuujRhRgoQWn9MwnOU3zS3CiiitCTBvfD0k2oXF3b6xd2nnsGdI0QjIUDPIPYVF/wjd7/0Mmof9+4v/ia6OiuGWW4dtuz185dfmdCxVVK1/wAEc5/wjd7/ANDJqH/fuL/4mj/hG73/AKGTUP8Av3F/8TXR0Uv7Mw3Z/wDgUv8AMf1ur3/Bf5HOf8I3e/8AQyah/wB+4v8A4mj/AIRu9/6GTUP+/cX/AMTXR0Uf2Zhuz/8AApf5h9bq9/wX+Rzn/CN3v/Qyah/37i/+Jo/4Ru9/6GTUP+/cX/xNdHRR/ZmG7P8A8Cl/mH1ur3/Bf5HOf8I3e/8AQyah/wB+4v8A4mj/AIRu9/6GTUP+/cX/AMTXR0Uf2Zhuz/8AApf5h9bq9/wX+Rzn/CN3v/Qyah/37i/+Jo/4Ru9/6GTUP+/cX/xNdHRR/ZmG7P8A8Cl/mH1ur3/Bf5HOf8I3e/8AQyah/wB+4v8A4mj/AIRu9/6GTUP+/cX/AMTXR0Uf2Zhuz/8AApf5h9bq9/wX+Rh6doEltqMN5Pq11dmHdsSREABIxn5QPWtyiiumhh6dCLjTW+u7f5mNSpKo7yYUUUVsQZWu6N/adxbXEd9PZy24cK0QU5DYz94H0qj/AMI3e/8AQyah/wB+4v8A4mujoriqZfQqTc5J3e+rXl0ZvHE1IxUU9PRHOf8ACN3v/Qyah/37i/8AiaP+Ebvf+hk1D/v3F/8AE10dFT/ZmG7P/wACl/mV9bq9/wAF/kc5/wAI3e/9DJqH/fuL/wCJo/4Ru9/6GTUP+/cX/wATXR0Uf2Zhuz/8Cl/mH1ur3/Bf5HOf8I3e/wDQyah/37i/+Jo/4Ru9/wChk1D/AL9xf/E10dFH9mYbs/8AwKX+YfW6vf8ABf5HOf8ACN3v/Qyah/37i/8AiaP+Ebvf+hk1D/v3F/8AE10dFH9mYbs//Apf5h9bq9/wX+Rzn/CN3v8A0Mmof9+4v/iaP+Ebvf8AoZNQ/wC/cX/xNdHRR/ZmG7P/AMCl/mH1ur3/AAX+Rzn/AAjd7/0Mmof9+4v/AImj/hG73/oZNQ/79xf/ABNdHRR/ZmG7P/wKX+YfW6vf8F/kczceFZ7iFobjxBfyxNjchjjAYZz2WumHAAoorahhKVBt01q/Nvb1b7mdStOpbmYUUUV0mQUUUUAFFFFABRRRQAUUUUAFFFFABRRRQAVz/inwydbvbW8i1W706e3jeMNAqHcrFSQdwP8AdFdBRSaUlZl06kqcuaL1OL/4Qe+/6HHVv+/UP/xFH/CD33/Q46t/36h/+IrtKKj2UOx0fXq/f8F/kcX/AMIPff8AQ46t/wB+of8A4ij/AIQe+/6HHVv+/UP/AMRXaUUeyh2D69X7/gv8ji/+EHvv+hx1b/v1D/8AEUf8IPff9Djq3/fqH/4iu0oo9lDsH16v3/Bf5HF/8IPff9Djq3/fqH/4ij/hB77/AKHHVv8Av1D/APEV2lFHsodg+vV+/wCC/wAji/8AhB77/ocdW/79Q/8AxFH/AAg99/0OOrf9+of/AIiu0oo9lDsH16v3/Bf5HF/8IPff9Djq3/fqH/4ij/hB77/ocdW/79Q//EV2lFHsodg+vV+/4L/I4v8A4Qe+/wChx1b/AL9Q/wDxFNfwFPNsW68VapcQh1do2jiAbawODhc9q7aij2UOwfXq/wDN+C/yCiiitDkCiiigDC8VeHf7cezlj1K50+a1L7JIFUkhgAQdwI7Csj/hB77/AKHHVv8Av1D/APEV2lFQ6cW7tHTDF1acVGL09EcX/wAIPff9Djq3/fqH/wCIo/4Qe+/6HHVv+/UP/wARXaUUvZQ7FfXq/f8ABf5HF/8ACD33/Q46t/36h/8AiKP+EHvv+hx1b/v1D/8AEV2lFHsodg+vV+/4L/I4v/hB77/ocdW/79Q//EUf8IPff9Djq3/fqH/4iu0oo9lDsH16v3/Bf5HF/wDCD33/AEOOrf8AfqH/AOIo/wCEHvv+hx1b/v1D/wDEV2lFHsodg+vV+/4L/I4v/hB77/ocdW/79Q//ABFH/CD33/Q46t/36h/+IrtKKPZQ7B9er9/wX+Rxf/CD33/Q46t/36h/+Io/4Qe+/wChx1b/AL9Q/wDxFdpRR7KHYPr1fv8Agv8AI4e48A3FxA9vceLNVlhkG10MUIDDuOFzXbou1Qo7DFLRVRgo7GVXEVKtud7BRRRVGIVieLPD41+K0UahcWMtrN50csIUtnaVx8wI6Ma26KTSasy4TlTkpR3OL/4Qe+/6HHVv+/UP/wARR/wg99/0OOrf9+of/iK7Sio9lDsdH16v3/Bf5HF/8IPff9Djq3/fqH/4ij/hB77/AKHHVv8Av1D/APEV2lFHsodg+vV+/wCC/wAji/8AhB77/ocdW/79Q/8AxFH/AAg99/0OOrf9+of/AIiu0oo9lDsH16v3/Bf5HF/8IPff9Djq3/fqH/4ij/hB77/ocdW/79Q//EV2lFHsodg+vV+/4L/I4v8A4Qe+/wChx1b/AL9Q/wDxFH/CD33/AEOOrf8AfqH/AOIrtKKPZQ7B9er9/wAF/kcX/wAIPff9Djq3/fqH/wCIo/4Qe+/6HHVv+/UP/wARXaUUeyh2D69X7/gv8ji/+EHvv+hx1b/v1D/8RUdz4Buri3lt5vF2rPFKhR18qHlSMEfc9K7iij2UOwfX6/8AN+C/yIrSFba0ht0JKxIqAnqQBipaKK0ORu4UUUUAFFFFABRRRQAUUUUAFFFFABRRRQAUUUUAFFFFABRRRQAUUUUAFFFFABRRRQAUUUUAFFFFABRRRQAUUUUAFFFFABRRRQAUUUUAFFFFABRRRQAUUUUAFFFFABRRRQAUUUUAFFFFABRRRQAUUUUAFFFFABRRRQAUUUUAFFFFABRRRQAUUUUAFFFFABRRRQAUUUUAFFFFABRRRQAUUUUAFFFFABRRRQAUUUUAFFFFABRRRQAUUUUAFFFFABRRRQAUUUUAFFFFABRRRQAUUUUAFFFFABRRRQAUUUUAFFFFABRRRQAUUUUAFFFFABRRRQAUUUUAFFFFABRRRQAUUUUAFFFFABRRRQAUUUUAFFFFABRRRQAUUUUAFFFFABRRRQAUUUUAFFFFABRRRQAUUUUAFFFFABRRRQAUUUUAFFFFABRRRQAUUUUAFFFFABRRRQAUUUUAFFFFABRRRQAUUUUAFFFFABRRRQAUUUUAFFFFABRRRQAUUUUAFFFFABRRRQAUUUUAFFFFABRRRQAUUUUAFFFFABRRRQAUUUUAFFFFABRRRQAUUUUAFFFFABRRRQAUUUUAFFFFABRRRQAUUUUAFFFFABRRRQAUUUUAFFFFABRRRQAUUUUAFFFFABRRRQAUUUUAFFFFABRRRQAUUUUAFFFFABRRRQAUUUUAFFFFABRRRQAUUUUAFFFFABRRRQAUUUUAFFFFABRRRQAUUUUAFFFFABRRRQAUUUUAFFFFABRRRQAUUUUAFFFFABRRRQAUUUUAFFFFABRRRQAUUUUAFFFFABRRRQAUUUUAFFFFABRRRQAUUUUAFFFFABRRRQAUUUUAFFFFABRRRQAUUUUAFFFFABRRRQAUUUUAFFFFABRRRQAUUUUAFFFFABRRRQAUUUUAFFFFABRRRQAUUUUAFFFFABRRRQAUUUUAFFFFABRRRQAUUUUAFFFFABRRRQAUUUUAFFFFABRRRQAUUUUAFFFFABRRRQAUUUUAFFFFABRRRQAUUUUAFFFFABRRRQAUUUUAFFFFABRRRQAUUUUAFFFFABRRRQAUUUUAFFFFABRRRQAUUUUAFFFFABRRRQAUUUUAFFFFABRRRQAUUUUAFFFFABRRRQAUUUUAFFFFABRRRQAUUUUAFFFFABRRRQAUUUUAFFFFABRRRQAUUUUAFFFFABRRRQAUUUUAFFFFABRRRQAUUUUAFFFFABRRRQAUUUUAFFFFABRRRQAUUUUAFFFFABRRRQAUUUUAFFFFABRRRQAUUUUAFFFFABRRRQAUUUUAFFFFABRRRQAUUUUAFFFFABRRRQAUUUUAFFFFABRRRQAUUUUAFFFFABRRRQAUUUUAFFFFABRRRQAUUUUAFFFFABRRRQAUUUUAFFFFABRRRQAUUUUAFFFFABRRRQAUUUUAFFFFABRRRQAUUUUAFFFFABRRRQAUUUUAFFFFABRRRQAUUUUAFFFFABRRRQAUUUUAFFFFABRRRQAUUUUAFFFFABRRRQAUUUUAFFFFABRRRQAUUUUAFFFFABRRRQAUUUUAFFFFABRRRQAUUUUAFFFFABRRRQAUUUUAFFFFABRRRQAUUUUAFFFFABRRRQAUUUUAFFFFABRRRQAUUUUAFFFFABRRRQAUUUUAFFFFABRRRQAUUUUAFFFFABRRRQAUUUUAFFFFABRRRQAUUUUAFFFFABRRRQAUUUUAFFFFABRRRQAUUUUAFFFFABRRRQAUUUUAFFFFABRRRQAUUUUAFFFFABRRRQAUUUUAFFFFABRRRQAUUUUAFFFFABRRRQAUUUUAFFFFABRRRQAUUUUAFFFFABRRRQAUUUUAFFFFABRRRQAUUUUAFFFFABRRRQAUUUUAFFFFABRRRQAUUUUAFFFFABRRRQAUUUUAFFFFABRRRQAUUUUAFFFFABRRRQAUUUUAFFFFABRRRQAUUUUAFFFFABRRRQAUUUUAFFFFABRRRQAUUUUAFFFFABRRRQAUUUUAFFFFABRRRQAUUUUAFFFFABRRRQAUUUUAFFFFABRRRQAUUUUAFFFFABRRRQAUUUUAFFFFABRRRQAUUUUAFFFFABRRRQAUUUUAFFFFABRRRQAUUUUAFFFFABRRRQAUUUUAFFFFABRRRQAUUUUAFFFFABRRRQAUUUUAFFFFABRRRQAUUUUAFFFFABRRRQAUUUUAFFFFABRRRQAUUUUAFFFFABRRRQAUUUUAFFFFABRRRQAUUUUAFFFFABRRRQAUUUUAFFFFABRRRQAUUUUAFFFFABRRRQAUUUUAFFFFABRRRQAUUUUAFFFFABRRRQAUUUUAFFFFABRRRQAUUUUAFFFFABRRRQAUUUUAFFFFABRRRQAUUUUAFFFFABRRRQAUUUUAFFFFABRRRQAUUUUAFFFFABRRRQAUUUUAFFFFABRRRQAUUUUAFFFFABRRRQAUUUUAFFFFABRRRQAUUUUAFFFFABRRRQAUUUUAFFFFABRRRQAUUUUAFFFFABRRRQAUUUUAFFFFABRRRQAUUUUAFFFFABRRRQAUUUUAFFFFABRRRQAUUUUAFFFFABRRRQAUUUUAFFFFABRRRQAUUUUAFFFFABRRRQAUUUUAFFFFABRRRQAUUUUAFFFFABRRRQAUUUUAFRXZK2kzA4IRiD+FS1Fe/wDHnP8A9c2/lTW4M848OaWt7oFjeXGpaw000Cu5F/IASfbNX/7Ct/8AoIaz/wCDGT/Gjwd/yKml/wDXslatetOT5meekrIyv7Ct/wDoIaz/AODGT/Gj+wrf/oIaz/4MZP8AGtWip5mOyMr+wrf/AKCGs/8Agxk/xo/sK3/6CGs/+DGT/GtWijmYWRlf2Fb/APQQ1n/wYyf40f2Fb/8AQQ1n/wAGMn+NatFHMwsjK/sK3/6CGs/+DGT/ABo/sK3/AOghrP8A4MZP8a1aKOZhZGV/YVv/ANBDWf8AwYyf40f2Fb/9BDWf/BjJ/jWrRRzMLIyv7Ct/+ghrP/gxk/xo/sK3/wCghrP/AIMZP8a1aKOZhZGV/YVv/wBBDWf/AAYyf40f2Fb/APQQ1n/wYyf41q0UczCyMr+wrf8A6CGs/wDgxk/xo/sK3/6CGs/+DGT/ABrVoo5mFkZQ0G3z/wAhDWf/AAYyf41v/D2WWbwdp8k0skshVwXkYsxw7DknrVYdam+G/wDyJWn/AEf/ANGNWOId6fz/AMzSj8Z0NFFFcB1hRRRQAUUUUAFFFFABRRRQAUUUUAFFFFABRRRQAUUUUAFFFFABRRRQAUUUUAFFFFABRRRQAUUUUAFFFFABRRRQAUUUUAFFFFABRRRQAUUUUAFFFFABRRRQAUUUUAFFFFABRRRQAUUUUAFFFFABRRRQAUUUUAFFFFABRRRQAUUUUAFFFFABRRRQAUUUUAFFFFABRRRQAUUUUAFFFFABRRRQAUUUUAFFFFABRRRQAUUUUAFFFFABRRRQAUUUUAFFFFABRRRQAUUUUAFFFFABRRRQAUUUUAFFFFABUV7/AMec/wD1zb+VS1Fe/wDHnP8A9c2/lTW4M4fwd/yKml/9eyVq1leDv+RU0v8A69krVr1J/Ezz47IKKKKkoKUUleR/tAa1pE19o3gnVPEH9hwXiTX91cq7qyrEpEK5TnmVgfcIaUnZXGldnrlFeVaZ8R9W1bwB4M1LQYtOutS1q+Gl3JuSwjimSOTe/wAvPWPdjuDWrH4j8dalqWqW2g6doNwuhypa3onlkRr242K7rCekagMMFs5P50uZBys9AorxeHxF4v0K5+IuuWFnpk2l6XrPn3MV3NIZpF8iIukW35U2+pyCew61e8VfFe6tfEOrWOjppoi0cIJYruC5eW9kMYkMcZiQqmAQMtnJ7Y5pc6Hys9aorxx/FHjSbxn4h1nSPssthF4WtNStNKuopFkXcWYqRkAScMDx/d9DWv4s+JN5b6bqGpeGbO1v7Wx0ODUmMpPzy3DqIYsg8fJuJ9MrT50HKz0yivNdY8f654Pmu08a6fpzKdJm1OzbTXf/AJZFQ0D7/wCL51ww4PPFM8B/EXUtX8U2ei6jFYXS38EkqTadbXKLaOgDeXKZUAbIzhhjJGMUc6Fys9NoooqhBRRRQAo61N8N/wDkStP+j/8AoxqhHWpvhv8A8iVp/wBH/wDRjVlX/h/NfqaUfj+X+R0NFFFcJ1BRRRQAUUUUAFFFFABRRRQAUUUUAFFFFABRRRQAUUUUAFFFFABRRRQAUUUUAFFFFABRRRQAUUUUAFFFFABRRRQAUUUUAFFFFABRRRQAUUUUAFFFFABRRRQAUUUUAFFFFABRRRQAUUUUAFFFFABRRRQAUUUUAFFFFABRRRQAUUUUAFFFFABRRRQAUUUUAFFFFABRRRQAUUUUAFFFFABRRRQAUUUUAFFFFABRRRQAUUUUAFFFFABRRRQAUUUUAFFFFABRRRQAUUUUAFFFFABRRRQAUUUUAFFFFABUV7/x5z/9c2/lUtRXv/HnP/1zb+VNbgzh/B3/ACKml/8AXslatZXg7/kVNL/69krVr1J/Ezz47IKKKKkoKxdN8OWtn4q1fxFJM91d6kkMW2VF228UQOET2JZmPua2qKLAcYnw906PxK+sw6hdRI2sLrAtFRfLWcQtE2O4DBtx9xS654Bi1DVNRurPxFq2k22rlTqtpaFNl0QoXcGI3RsVABK9QK7KvPtU+NHw30vVrvS9Q8QNb3VneGzug1rIVgkGOXYDCpk4DHgmpaitxq72NSXwHpz+H/FGireXKQeIpWkmYAEwZjSPCevCDr61DqfgHzdSvLzSPFGs6EupRompRWezFyUQIHBYExvtABZfatZPF2gSeJL7w7HeM+oWNguozosZKi3bO1w3Q9OgrkT8VLbUPF/gKz8PrBdaH4qgvJjdzI0ckawKCMA9Oc5z6UnyjXMdDN4cj0jxDJ4rsJtSuXj0pbGfTE2SG9SPJj+ZyCH5POec81w8Xw/1K0+A3iHQ7ewnXV9akef7IJlMkCNKpjhD9P3cYwMcDFdj4d+J3gvxBrcOkaTqVxPPcM620pspVguSn3hHKV2vjB6Gm2nxS8B3Xi7/AIRW31+N9T8426/un8l5h1iWXGwuP7oOaLRYe8Nh+Hdjcm7k8SatqPiGS509tOQ3ZRfs9u2CyrsA+YkDLnk4FXfDXhK80rUYby/8Xa3rQtYTBaQ3TIkcaHHLBAPMfAA3NXUUVXKhXYUUUUxBRRRQAo61N8N/+RK0/wCj/wDoxqhHWpvhv/yJWn/R/wD0Y1ZV/wCH81+ppR+P5f5HQ0UUVwnUFFFFABRRRQAUUUUAFFFFABRRRQAUUUUAFFFFABRRRQAUUUUAFFFFABRRRQAUUUUAFFFFABRRRQAUUUUAFFFFABRRRQAUUUUAFFFFABRRRQAUUUUAFFFFABRRRQAUUUUAFFFFABRRRQAUUUUAFFFFABRRRQAUUUUAFFFFABRRRQAUUUUAFFFFABRRRQAUUUUAFFFFABRRRQAUUUUAFFFFABRRRQAUUUUAFFFFABRRRQAUUUUAFFFFABRRRQAUUUUAFFFFABRRRQAUUUUAFFFFABRRRQAUUUUAFRXv/HnP/wBc2/lUtRXv/HnP/wBc2/lTW4M4fwd/yKml/wDXslatZXg7/kVNL/69krVr1J/Ezz47IKKKKkoKKKKAFHWvliAeKdRm+M/hfw94JOuDXNfmtPtouI0W1cqOZQ3JUA7gR3zX1NVDSdF0nSbi/uNM0+C0l1G4NzePGMGeUjBdveplHmKjKx4lP4X8c+CvHH2rR/C83ii2vfB9tof2iC6jiENxEu0tJvOdp68Zqn4A8B+LdPl+Dv27QJVXQ9P1KHVFkddsDSj5Fbn+L2zX0RRS9mg52fOXgDwr4+0fx7pVt4d8OeJPCehx3Up1W1vdXivNMEDZ4tk++rEkGsvwV8K/Edjq2n+F9e8M+J7y0sdde/XUotejj04L5hdJliwW8zkAjvzzX1DRS9mh+0YrHLE+ppKKK0ICiiigAooooAUdam+G/wDyJWn/AEf/ANGNUI61N8N/+RK0/wCj/wDoxqyr/wAP5r9TSj8fy/yOhooorhOoKKKKACiiigAooooAKKKKACiiigAooooAKKKKACiiigAooooAKKKKACiiigAooooAKKKKACiiigAooooAKKKKACiiigAooooAKKKKACiiigAooooAKKKKACiiigAooooAKKKKACiiigAooooAKKKKACiiigAooooAKKKKACiiigAooooAKKKKACiiigAooooAKKKKACiiigAooooAKKKKACiiigAooooAKKKKACiiigAooooAKKKKACiiigAooooAKKKKACiiigAooooAKKKKACiiigAooooAKivf+POf/rm38qlriPFXxO8FaTLLpf8AbC6jqjKVWw0yNru4JIwBsjB2/jimtwIfB3/IqaX/ANeyVq1zvhq61C18O6fbTeG9bWWO3QOv2bocdOtaP9pXf/Qu63/4DD/GvVlrJu5562Ro0Vy/irxxpvhewW+17T9UsoncRxB4MvK56KiA7mPsAai8M+JvEeqz3U954B1vTNO+X7E0yAzzDuzxj/VjpgZJ9cVHWxR1tFZ39pXf/Qu63/4DD/Gj+0rv/oXdb/8AAYf407CNGis7+0rv/oXdb/8AAYf41Rs/FEN5qt9pdto+sS3mn+X9riW35i8xdyZ57jmiwG/RWd/aV3/0Lut/+Aw/xrK1/wAZWmgvYjV9H1q0S+uVtYZXtcR+a33VZs4XPQZ6nii3mB01FZ39pXf/AELut/8AgMP8aP7Su/8AoXdb/wDAYf40WA0aKzv7Su/+hd1v/wABh/jR/aV3/wBC7rf/AIDD/GiwGjRXG+I/iNo/hvUoLLXtM1vTftAHk3FxZlYGJONvmZ2g+xI61vRatNNEssOg6xLG4DK6QBlYeoIODRbzGalFZ39pXf8A0Lut/wDgMP8AGj+0rv8A6F3W/wDwGH+NFhGkOtTfDf8A5ErT/o//AKMascald5/5F3W//AYf41i+EviV4W8P6db+H/FM174cvoGdT/atnJbxPlzgrKRsIOR3rHEaU7ef+ZrR+M9Toqvp1/Y6jbLdafeW95A33ZYJVkQ/Qg4qxXCdQUUUUAFFFFABRRRQAUUUUAFFFFABRRRQAUUUUAFFFFABRRRQAUUUUAFFFFABRRRQAUUUUAFFFFABRRRQAUUUUAFFFFABRRRQAUUUUAFFFFABRRRQAUUUUAFFFFABRRRQAUUUUAFFFFABRRRQAUUUUAFFFFABRRRQAUUUUAFFFFABRRRQAUUUUAFFFFABRRRQAUUUUAFFFFABRRRQAUUUUAFFFFABRRRQAUUUUAFFFFABRRRQAUUUUAFFFFABRRRQAUUUUAFFFFABRRRQAUUHpXF+Ivij4J0W8OnNrA1HU84XT9Mja7uCfTZGCR+OKAO0oJwMngV5wfEPxP8AEQx4d8H2nhu0bpe+IZ902PUW0RJB9mcUD4XS60fM8e+MNb8SZ5azjk+xWX08qLBYf7zGgDU8R/FDwTod4dPfWBqOp9tP0yNru5J9NkYJX/gWKyv+Ei+KHiI7fD3g+08N2jdLzxDPulx6i2iJP/fTiu08O+HdB8O2Ys9B0ex0yAfwWsCxg+5wOT7mtSgDzkfC+XWT5njzxjrniTJy1nHJ9isvp5UOC3/Amauy8OeHdB8OWYs9B0aw0yADGy1gWMH64HP41qVwGv8AxKt21Sbw94I02TxZr0Z2yx2zhbSzPrcXH3U/3RlvagDuL+8tNPspb2/uobW1hUtLNM4REUdyTwBXnL+OfEXjSRrT4ZaagsMlZPEmpxMtoPX7PFw059/lT3NTaf8ADi61y+h1j4m6qniG7jYSQaXEhj0y0bttiPMrD+/Jn2Ar0aNVjRY41VUUAKqjAA9BQBxvg/4daRompf29qVxc+IfEjDD6tqRDyr6rEv3YU/2UA9ya7OiigAooooAz/Emr2WgeH7/W9RkEdpYW73EzeiqpJ/lXK/BDSb2y8Gf2zrEezWfENw+rX4PVGl5SP6JGET/gNUPi6f8AhJPEPhv4cRfNFqVx/aOrAHpY27Bip9pJfLT6bq9JHAwOlABVLXtJ03XtHutH1izhvbC6jMc8Eq5V1P8Anr1HWrtFAHl2g6tqXw31m18J+LLya98OXcgh0PXJ2y0TH7tpdN/e7JIeGHB56+o1S17SdN17R7rR9Ys4rywuozHPDKuVdT/nr1B5rzvQdW1L4b6xa+E/Fl5Le+HbqQQ6Frk7ZaJj920um/vdkkPDDg89QD1GiiigCG9tbW9tZLW8t4bm3kG14pUDow9CDwa8/n+FsWjzPefDzXr7wjOTuNpF+/0+Q/7Vu/C/VCpr0aigDzX/AITrxZ4WPl/EHwlIbReDrWghrq2x/ekhx5sQ/Bh7123hnxHoPibTl1Hw/q9nqdq3/LS3lD7T6EDlT7HBrUrivE/wx8L6xqDavaRXOg6321TSJTbTk/7e35ZB7OGoA7Woru2t7uBre6t4riFxho5UDKfqDxXnQuvin4Q4vrO18eaUn/LezC2mpIvq0RPlyn/dKk+lb3hD4ieFPE901hY6ibbVY/8AW6ZfRm2u4z7xPgn6jI96AM3UPhF4JlumvtJsbnw5fEk/atEuns3ye5VDsP4qar/8I98UtCwdD8bWHiG3Xpba/ZbJMDsJ4MZPuyGvRqKAPN/+FieI9GG3xl8Odbs0UfNeaQV1G369cJiQD6pXQeGPiH4J8Sy+Ro/iXT57kHBtnk8qcHuDG+HH5V1FYXijwd4V8URGPxB4e03UuMB57dS6/R/vD8DQBu0V5z/wq6bSW8zwX428R+HwDlbWS4+3Wgx0Hlz7iB9GFIt/8X9BGL7Q9A8X26jmXTrg2Nyfcxy7kP0DigD0eivPIfi/4Xtplt/FFrrHhK4PG3WbF4Yz9JhujI/4FXcaTqmm6taLd6VqFpfW7AES28yyKfxU0AW6KKKACiiigAooooAKKKKACiiigAooooAKKKKACiiigAooooAKKKKACiiigAooooAKKKKACiiigAooooAKKKKACiiigAooooAKKKKACiiigAooooAKKKKACiiigAooooAKKKKACiiigAooooAKKKKACiiigAooooAKKKKACiiigAooooAKKKKACiiigAooooAKKKKACiiigAooooAKKKKACiiigAooooAKKKKACiiigAooooAKKCcDJ4FcZ4i+KHgnRbw6e+sLqGp9F0/TI2u7kn02RgkfjigDs6D0rzc+Ivid4i+Xw54PtfDdo2cXviGfdLjsRbREkH2ZxSj4Xza0fM8e+Mdb8Rg8tZRSfYrL6eVFgsP95jQBqeJPih4J0O8Onyawuoan20/TI2u7knOMbIwSv/AsVlDxF8T/ABEceHvB1p4btG6XniGfdLj1FtCSc/7ziu08O+HdB8OWYs9B0aw0yAfwWsCxg+5wOT7mtSgDzgfC+bWSJPHnjLW/EmSC1nHJ9hsvp5UOCw/3mauz8OeHNB8N2Qs9A0aw0yADGy1gWPP1wOfxrUooAKKKy/FHiLQ/C+lPqniDVLbTrNOPMmfG49lUdWY9gASaANSuV8b+PfD/AIUkis7qSa+1e5H+iaTYR+dd3B/2Yx0H+02FHrXNnVfH3j/5PD1vP4M8Ov11S+hB1C5X1hgbiIHs8mT6LXVeCfA/h3whFMdJtHe8uDuu9QupDNd3LeskrfM306DsBQByv/COeNvHv73xpev4a0F+RoOmXH+kTL6XNyvP1SPA9WNd/wCH9F0nw/pUOlaHp1tp1jCMRwW8YRR74HU+/U1fooAKKKKACiiigAoJABJIAHUmiuD+OGrXlr4PTQdIkKaz4kuU0mxI6xmXPmS/8AjDtn2FAFL4PA+Ita8R/EebLR6tc/YtJJ/hsLclVYezyeY/0K16TVLQNLs9D0Ox0bT4xFaWNulvCg7IigD9BV2gAooooAKo69pGm69o91o+sWcN7YXUZjnglXKup/z16g81eooA8u0HV9S+G+s2vhPxZeTXvh27kEOha5O2WjY/dtLpv73ZJDw3Q89fUapa9pOm69o91o+sWcV5YXcZjnhlXKup/wA8HqDzXneg6tqXw31i18J+LLyW98O3Ugh0LXZ2y0bH7tpdN/e7JIeGHB56gHqNFFFABRRRQAVg+L/B3hnxbbLB4h0a1vinMUrLtliPqki4ZD9CK3qKAPNf+EZ+IXhIb/CHiZfEWnp00nxC5Mij+7HdqNw9AJA31qzpnxV0eK+j0rxlp994N1R22pHqigW8rf8ATO4XMb/mD7V6DVbU7Cx1SyksdSs7e9tZRiSGeISIw91PBoAnjdJI1kjZXRhlWU5BHqKdXm8vwxuNBka6+G/iW88Mtkt/ZsubrTXPp5LnMf1jZfpSD4ha/wCGT5XxG8J3FjAvB1nSN15Ykf3nUDzYh/vKR70Aek0Vn+H9c0fxBpyajoeqWepWj/dmtphIv5jofatCgBk8MVxC0M8SSxOMMjqGVh6EHrXD6r8JPAt3eNf2WlPoV+W3fa9GuHspM+p8sgH8Qa7uigDzkeGPiZoYH/CPePbfWoF+7a+IrIM2P+u8O1vzU0h8feLNF48X/DfVY4lzuvNElXUIcDuUG2Uf98mvR6KAOS8NfEnwN4in+y6b4ksvtmQDaXDG3uAfQxyBWz+FdbWN4k8K+GvEsHk6/oOm6mnb7Tbq5X6EjIP0rkj8KotL+bwX4u8SeGSMbbeO6+12o9vJn3AD6EUAejUV5wLn4xaD/wAfOneHfGNsufmtJW0+6I7fK+6Mn/gS1JH8XPD9nIsHizS9d8JTE7c6rYsICfadN0ZHvuFAHodFUNE1rR9btFu9G1Sy1G3YZEltOsi4+qk1foAKKKKACiiigAooooAKKKKACiiigAooooAKKKKACiiigAooooAKKKKACiiigAooooAKKKKACiiigAooooAKKKKACiiigAooooAKKKKACiiigAooooAKKKKACiiigAooooAKKKKACiiigAooooAKKKKACiiigAooooAKKKKACiiigAooooAKKKKACiiigAooooAKKKKACiiigAooJwMngVxniP4oeCdDvDp8msLqGp9F0/TY2u7lj6bIwSPxxQB2dFebt4i+J3iLK+G/B1r4ctGzi98RT5lx2ItoiTn2ZxSj4Xz61+88e+Mtb8Rg8tZRSfYbL6eVEQWH+8xoA1PEnxQ8E6HeHT5dYXUNT7afpsbXdyTnGNkYJH44rLHiL4neIuPD3g218OWjdLzxDPmXHqLaEk5/3nWuz8OeHNA8N2Ys9A0aw0yD+5awLHn64HJ9zWpQB5x/wq+fWiJPHnjLW/EecFrOKT7DZfTyocFh/vM1dl4b8OaB4bshZ6Bo1hpkAGNlrAsefrgc/jWrRQAUUUUAFFFFABTLiaG3gee4ljhhjUs8jsFVQOpJPQVxPin4kadYas/h3w5Y3HijxIBzp9gQVt897iU/JCv1OfQGs22+H2seK5o9Q+KWqR6jGGDxeH7EsmnQnt5mfmuGHq/y+i0ALcfELVfFNzJpvwu0uPVFVik2vXu5NNgPfYR81ww9E+X1atDwv8N7Cy1ZPEXia/uPFXiReVv75Rst/a3hHyQj6Dd6k121tBDbW8dvbQxwwxqFSONQqqB0AA4AqSgAooooAKKKKACiiigAooooAK820X/irfjZqWsn59M8JQHTLP8AuteygPcOPdE8tPqzV1PxG8SReEfBOq+IJE817WAmCIdZpm+WOMe7OVH41W+FHhuXwr4E0/S7t/N1F1a51GbvLdSkvKx/4ExH0AoA6miiigAooooAKKKKACqOv6RpuvaPdaPrFnFe2F1GY54JVyrqf88HqDzV6igDy7QdX1L4b6za+EvFl5Ne+HruQQ6Frs7ZaNj920um/v8AZJDww4PPX1GqOvaRpuvaPdaPrFnFe2F1GY54ZVyrqf8APB6g8155oGr6l8N9ZtfCXi28lvPD11IIdC12dstGx+7aXTf3+ySHhhweeoB6jRRRQAUUUUAFFFFABRRRQBwviD4W+G77UX1jRWu/C+tNydQ0aX7O7n/pog+SQf7ymqB1X4n+EeNa0i38baWvW90lRb3yL6vbsdjn/cYf7tek0UAcx4N8feFPFrPBo+qob6L/AF1hcKYLqE+jxOAw/LFdPXOeMfA/hXxciHXdHguLiL/U3aZjuIT2KSrh1/A1zH9hfEvwid3hvXovF2mL007XH8u7VfSO6UfMf+uin60AelUVwWi/FTQJr+PSPEtve+EdZchVs9YQRLKf+mUwJjkH0bPtXeKwZQykEEZBHegBaKKKACmyIkkbRyIrowwysMgj3FOooA4fWvhP4D1K7a+j0RdJvzg/bNJlaymz67oiufxzVH/hEviLofzeGviF/acK522fiOzE+fbz4tsg/ENXo1FAHnJ8ceNtEO3xZ8OL6SFT817oFwt7HgDljGdsoH/ATWp4c+KHgTXbgWlp4itbe+4zZ32bW4B9PLlCtn6CuyrK8Q+G/D/iK2Nvr2iafqcX926t1kx9MjigDVHIyORRXnLfCew03L+DPE3iLwo/8MNreGe1B94Jty/lik3/ABi0Fvmi8OeMrRT1Qtp12R9DvjJ/FaAPR6K86T4taTp5WPxjoPiDwlJwDJqFkz22fQTxbk/EkV2eg6/oev2outD1iw1KE/x2twsg/wDHTQBpUUUUAFFFFABRRRQAUUUUAFFFFABRRRQAUUUUAFFFFABRRRQAUUUUAFFFFABRRRQAUUUUAFFFFABRRRQAUUUUAFFFFABRRRQAUUUUAFFFFABRRRQAUUUUAFFFFABRRRQAUUUUAFFFFABRRRQAUUUUAFFFFABRRRQAUUUUAFFFFABRQTgZPArjfEnxP8E6HdnT5tZS/wBT6Lp+mxtd3LH08uMEj8cUAdlRXm58R/E7xEdvhvwbbeHbRs7b7xFPmXHYi2iJP4M4pR8MLjWvn8eeMtb8RA8tZQyfYbL6eVCQWH+8xoA1PEnxQ8E6Hef2fLrK3+p9Bp+mxtd3JPpsjBI/HFZY8R/E7xFx4d8G2vhy0bpe+Ip8y49RbQknP+8612Xhvw34f8N2YtNA0Ww0yDulrAsefrgc/jWrQB5wPhfca0RJ488Za34jzgtZQyfYbL6eVFgsP95jXZeG/DegeG7IWfh/RrDS4McpawLHn64HJ9zWrRQAUUUUAFFFFABRRRQAUVR17WdK0DS5tU1rUbbT7KEZknuJAiL+J7+3evPz4l8a+PT5Xgeybw7oT/e8Qapbnzpl9ba2bBPs8mB6KaAOq8b+N/Dvg+GH+2Lxjd3J22lhbRma6um/uxxL8zfXoO5Fcr/Znj74gDdr1xP4K8Ov002ymB1K5T0mmXiEH+7HluxYV0ngnwDoHhWaW/t459Q1m5H+latfyeddz/Vz91f9lcKPSuqoAyvC3hzQ/C2kppfh/S7bT7RedkKYLN3Zj1Zj3JJJrVoooAKKKKACiiigAooooAKKKKACiiob+7t7CwuL67lWK3t4mllkY4CIoySfoAaAPPPGn/FV/Fnw/wCEV+ew0RRr2qjqDICUtIz/AMD3yYP/ADzFek1558DLO5utCv8AxvqUTR6h4ruzqGxx80VrjbbR/hEFP1Y16HQAUUUUAFFFFABRRRQAUUUUAFUdf0jTde0a60fWLOK9sLuMxzwSrlXU/wCeD1B5q9RQB5doGr6l8ONZtfCXi28mvfD13IIdC12dstGx+7aXTf3+ySHhxweevqNUdf0jTde0e60fWLOK9sLqMxzQyrlWU/17g9Qea890DV9T+HGs2vhLxbeS3nh66kEOha7O2WRj920um7P2SQ8OODz1APUKKKKACiiigAooooAKKKKACiiigCnrWk6XrWnyafrGn2uoWcow8FzEsiN+Brgj8N9U8NsZ/hv4qutGjBz/AGRqG6809vZVY74v+ANgelek0UAebD4k6l4cYQfEjwtdaGgIX+1rHN5pze5dRvi/4Gox613ujappus6fHqGk6ha39nKMpPbyiRG+hHFW2VWUqyhlIwQRwRXBax8K9Be/k1bwvc3vhDWHO5rrR3EaSt/01hIMcg+q596AO+orzX+3/iT4RO3xN4fj8WaYv/MS0JNl0q+slqx5P/XNj9K6jwf428LeLY3Og6xb3M0f+utWzHcQn0eJsOp+ooA6KiiigAooooAKKKKAEYBlKsAQRgg964vX/hX4D1i5a8k8PwWN+el7prNZzg+u+IqSfrmu1ooA85Hgzx7oZ3eF/iNcXkIORZeIbVbtSP7vnJskA+paj/hMvH2h/L4o+HU97CuA154dululPqfJfZIB9N1ejUUAcToPxW8B6xdCyTX4bC/PWz1JGs5wfTZKFJ/DNdqrKyhlIZSMgg8EVn69oOia9am11vSLDUoCMbLq3WQf+PCuMb4SaPp7NN4P1zxB4TlzuEen3zNbE+8Eu5MewAoA9Eorzjy/jFoJ/d3HhzxlarjiVW067I78jfGT+C0q/Fiy035PGnhjxH4VYfemubMz2o/7bQ7l/PFAHo1FZXh3xL4e8RW/2jQdb07U4u7WtwsmPrg8fjWrQAUUUUAFFFFABRRRQAUUUUAFFFFABRRRQAUUUUAFFFFABRRRQAUUUUAFFFFABRRRQAUUUUAFFFFABRRRQAUUUUAFFFFABRRRQAUUUUAFFFFABRRRQAUUUUAFFFFABRRRQAUUUUAFFB4Fcb4l+J3gnQrs6fNrKX2p87dP02Nru5Y+nlxgkH64oA7KivN/+Ek+JviL5fDfg228PWjZ23viKf8AeY9RbREn/vplpf8AhWNzrXz+PPGet+IgeWsoJPsNl9PKiIZv+BMaANTxJ8UPBOhXn9nzayl9qXRdP02Nru5J9PLjBI/HFZf/AAknxN8RceHPBlt4dtG6XviKf97j1FtCSc/7zrXZeG/Dfh/w1Zi08P6LYaZBjlbWBY8/UgZP41q0Aebj4X3OtHzPHvjPW/EQOC1lC/2Gy+nlRYLD/eY12fhvw3oHhuyFn4f0aw0yDHKWsCx7vqQMk+5rVooAKKKKACiiigAooooAKKKKACiiuM8ZfEXR9B1EaHYQXPiDxHIMxaRpqiSYD+9Ifuwp/tOR7ZoA7J2VEZ3YKqjJJOAB6151qHxIuNavpdG+GelL4jvI3Mc+pSOY9MtG775h/rWH9yPJ9SKgTwR4k8asLr4makkenk7k8NaXKy2oHYXEvDTn1X5U9jXounWNnptjDY6fawWlrCoSKGGMIiKOwA4AoA4fQPhrDJqsPiHx1qcnizXYzuha4jC2dmfSC3+6v+825vevQKKKACiiigAooooAKKKKACiiigAooooAKKKKACvOPjdNJq0GjfDyzdhP4mu/Luyh5jsIsPcN7ZXbH/20r0evNvhx/wAVR8Q/EvjyT57O3c6Fox6gxQtmeVf9+bIyO0YoA9GgijghSGGNY4o1CoijAUAYAFPoooAKKKKACiiigAooooAKKKKACiiigAqjr+kabr2jXWj6xZxXthdRmOaGUZVlP8j3B6g81eooA8v0DV9S+HGs2vhHxbezXvh+7kEOha7OcsjH7tpdN/f7JIeHHB+br6hVHX9I03XtGutH1izivbC6jMc0Mq5VlP8AI9weoPNee6Bq+p/DnWbXwl4uvJb3w/dSCHQtdnOWRj920um7P2SQ8OODz1APUKKKKACiiigAooooAKKKKACiiigAooooAK5fxl4A8KeLJEuNW0tBfxf6nULZzBdwn1WVMMPpnHtXUUUAeajTPih4RO7SNVt/HGlr/wAueqMLa/RfRLhRskP++oP+1Wj4e+KXhrUNSTRtX+1+Gdbbpp2sxfZ5HP8A0zY/JIP9xjXc1neIdC0XxFpz6drul2epWj9YbmESL9RnofegDRorzY/D/wAReGf3nw58Wz2luvI0bWS15ZEf3UYnzYh9GI9qWH4nzaHItr8SPDd54XfIUaihN1psh/67IMx/SRVoA9Ioqvp19ZalZR3unXlveWsozHNBIHRx6hhwasUAFFFFABRRRQAUUUUAFB5GDyKKKAOO8R/DDwJr1z9svPDtpDfckXllm1uAfXzIirZ+prJHgXxponzeEviRqDwrjbZa/At9HgdhINso+u416PRQB5yfFnxG0MY8SfD0arCv3rvw5eCbP/bCXa/5Fqu6N8WfAeo3i2E2tDSNQJ2/Y9Wieymz6YlAz+BNdzVHWdH0nWrRrTWNMs9Qt2GDHcwLIv5MDQBcikjljWSJ1kRhlWU5BHqDTq87k+EPh2zkafwnqWueEZjzjSb5lhJ7ZgfdGR7bRTGtfjFoP/Hrqfh3xjbKPuXkLafdH/gaboz/AN8rQB6PRXnI+KiaW2zxp4P8SeGcEhrlrX7XaD382DdgfUCus8NeLPDPiaATeH9e03U1xki2uFdl+qg5H4igDaooooAKKKKACiiigAooooAKKKKACiiigAooooAKKKKACiiigAooooAKKKKACiiigAooooAKKKKACiiigAooooAKKK4xfHE80twtp4cvJ4obiSDzBPGoZkYqTgn1FTKajua0qE6t+RbHZ0Vx3/CZah/0Kt5/4Ex/40f8JnqH/Qq3n/gTH/jUe2h3NvqNft+K/wAzsaK47/hM9Q/6Fa8/8CY/8aP+Ez1D/oVbz/wJj/xpe3p9x/UK/b8V/mdjRXG/8JpqH/Qq3n/gTH/jR/wmmof9Cref+BMf+NH1il3D6hX7fiv8zsqK8o8XeOPiM0y2vhTwXYxqVG+91G+BCHvtiTlj9WArn30XVtbAfx1c+KfEAPL2UN7FY2X08qEhm/4ExpPE0l9oSwNd/Z/Ff5noviT4n+CdCvP7Pm1pL3Ujwun6dG13csfTy4wSPxxWUfEnxM8RDb4b8F2/h61bpe+I5/3uPUW0RLZ/3nWk8NahpvhqzFn4f+HiaXBjBW2MKZ+pHJ/Gtb/hNL7/AKFa8/8AAiP/ABpfWqP8w/7PxH8v4r/MyR8MLrWj5nj3xnrfiEH71lBJ9hsvp5cRDMP95jXZ+G/Dfh/w1Ziz8P6LYaZB3W2gWPd7kgZJ9zWF/wAJrff9Ctef+BEf+NJ/wmt9/wBCtef+BEf+NL65Q/mH/Z+I/l/Ff5nZ0Vxn/CbX3/QrXn/gRH/jV/w14qOr6xNpc2lXFjPHbi4/eSKwZS23t71UMTSm+WMtSJ4KvCLlKOi80dJRRRW5yhRRRQAUVzL+KZ2urqG10S5uEt53gZxKigspweDR/wAJNqH/AELtz/3/AErb6vU7fkZe2h3Omormf+Em1D/oXbn/AL/pR/wk2of9C7c/9/0p/V6nb8UHtodzpqK5n/hJtQ/6F25/7/pR/wAJNqH/AELtz/3/AEo+r1O34oPbQ7nTVg+M/GHh3wfYJea/qUdt5rbIIVBea4fskca5Z29gDXP+L9f8ZXOjm38L6TFY38kiqbm7ZZVhj/iZUBG58dATj1rI8H6DZeH9RfWp9B1TXPEEq4m1fU7qOW4I/up/DEn+ygA+tH1ep2/FB7aHcnKfEL4gf6w3PgLw0/8AApU6vdp7nlbYH23P/u12Xg7wn4e8I6abDw/psVnG53TOMtLO/d5HOWdj6kmqv/CTah/0Ltz/AN/0o/4SbUP+hduf+/6UfV6nb8UHtodzpqK5n/hJtQ/6F25/7/pR/wAJNqH/AELtz/3/AEo+r1O34oPbQ7nTUVzP/CTah/0Ltz/3/Sj/AISbUP8AoXbn/v8ApR9XqdvxQe2h3OmorB0jxE95rC6ZcaXPZyvA0yl5FYFVIB6fWt6spwlB2kXGSkroKKKKkoKKKwZvEMgvrq1t9Lmn+zSeW7iRQM4B7/WsK+Jp0EnUe/k3+RpTpSqN8qN6isD+37z/AKAc/wD3+Sj+37z/AKAc/wD3+Suf+0sP3f8A4DL/ACNfqlXt+K/zN+isD+37z/oBz/8Af5KP7fvP+gHP/wB/ko/tLD93/wCAy/yD6pV7fiv8zforA/t+8/6Ac/8A3+Sj+37z/oBz/wDf5KP7Sw/d/wDgMv8AIPqlXt+K/wAzN+MfiC78P+BbptK+bWdQkTTtLQdWuZjsQ/8AAclj7Ka2PBHh+18K+EdL8O2XMNhbJCGPV2A+Zz7s2Sfc1xmuQ6zrPxJ0LWbzRmOjaJbTTW8PnoWe9k+QOw9Ej3YPq59K63+37z/oBz/9/kpvMcP3f/gMv8hfVavb8V/mb9FYH9v3n/QDn/7/ACUf2/ef9AOf/v8AJS/tLD93/wCAy/yH9Uq9vxX+Zv0Vgf2/ef8AQDn/AO/yUf2/ef8AQDn/AO/yUf2lh+7/APAZf5B9Uq9vxX+Zv0Vgf2/ef9AOf/v8lSWOvPPqkGnz6dNbPOjsjM6sPlxnp9RTjmOHbUbvXT4ZLf5CeFqpN2/FG3RRRXcc4UUUUAFFcpqfjGS21y90u10O6vGsygkkWVFGXQMMZPoah/4TLUP+hVvP/AmP/Gs3Vgup1LBVmk0t/Nf5nY0Vx3/CZah/0Kt5/wCBMf8AjR/wmeof9Ctef+BMf+NL28O4/qNft+K/zOxqjr+kabr2jXWj6xZxXthdxmOaGUZVlP8AI9weoPNc5/wmeof9Cref+BMf+NJ/wmmof9Cref8AgTH/AI0vrFPuP6hX7fiv8zB0DV9S+HOs2vhHxdeS3vh+7kEOha7OcsjH7tpdN/f7JIeHHB+br6hXn+v64mv6NdaPrHgme9sLqMxzQSzxlWU/jwe4I5B5rD+Hut+MPDsN1oep6ReatpVsw/sm8mu4zdeT/wA8puzFegfqRjPNL6zS7h9Qr/y/iv8AM9corjf+E01D/oVbz/wIj/xo/wCE0v8A/oVb3/wIj/xpfWqP8wfUMR/L+K/zOyorjf8AhNL7/oVrz/wIj/xo/wCE1vv+hWvP/AiP/Gj63R/mH/Z+I/l/Ff5nZUVxn/Ca33/QrXn/AIER/wCNH/CbX3/QrXn/AIER/wCNL65Q/mD+z8R/L+K/zOzorktL8Zvda3ZaXc6HdWbXhdY5GlRhlVLHOD6CutranUjUXNF3Rz1aM6LtNWCiiirMgooqprF8mmaTd6hIjSJbQtKyr1IUZwKBpNuyLdFcbH41vpI1kTwteFWUMp+0R8g/jS/8JlqH/Qq3n/gRH/jWftYdzq+o1+34r/M7GmyIkkbRyIrowwysMgj0IrkP+Ey1D/oVbz/wIj/xo/4TLUP+hVvP/AiP/Gj2se4fUa/b8V/mZ2pfCrSIL2TVPBeo33gzU3bc76YQLaVv+mls2Y2/AA+9Vx4o+IHhMbPGPhga/p6ddW8PIWcD+9JaMd49SULj2rZ/4TLUP+hVvP8AwIj/AMaP+Ey1D/oVbz/wIj/xo9rHuH1Gv2/Ff5mp4Q8YeGfF1q1x4d1m1vwnEsaNiWI+jxnDIfYgVu15D4u0zRPE12uoXngW+tNWT/VapYXqW13GfaVCCfocj2qnouv/ABU8P6lFamwPirRCwUyX80VvfwL/AL6DZLj3Ck0e1j3E8FWXT8V/me1UVx3/AAmWof8AQq3n/gRH/jR/wmWof9Cref8AgRH/AI0e1h3H9Rr9vxX+Z2NFcd/wmWof9Cref+BEf+NH/CZah/0Kt5/4ER/40e1j3D6jX7fiv8zsaK47/hMtQ/6FW8/8CI/8aP8AhMtQ/wChVvP/AAIj/wAaPax7h9Rr9vxX+Z2NFcd/wmWof9Cref8AgRH/AI0ybxzcWyrJdeG7yGEyKjP58Z27iAOM+9HtYdw+o1+34r/M7SiiitDkCiimTyCKF5SCQiliB7CgB9cn4m+G/gbxFP8AatU8N2LXmci7gQwXAPqJY9rZ/Gls/Ft1d2kN1B4eumimQOhM6DIPTvUv/CTah/0Ltz/3/St/q1Tt+KMvbQ7nPf8ACv8AxXovzeD/AIkatDGB8tnrca6hD9NzbZR/30aX/hJviboef+Eh8B22t26n5rrw7egvj1+zzbWz7BjXQf8ACTah/wBC7c/9/wBKP+Em1D/oXbn/AL/pR9XqdvxQe2h3MnS/i54FurxbC/1SXQdQJC/ZNat3spM+g8wBT+BNdzbzQ3EKzW8scsTjKujBlYexFclquprq1o1pqng0X1u3WK4aKRT+DZFcPL4F0O3na48NaJ4i8JXB6tomqiBD9YiWjP8A3zR9XqdvxQe2h3PaKK8ai1T4y6LKFs003xTaD+HUglnc49PMiyh+pQV2+meKtamsIZb7wjcWlyy/vIReRyBD7MOtL6vUvsP2sO511Fcz/wAJNqH/AELtz/3/AEo/4SbUP+hduf8Av+lP6vU7fihe2h3Omormf+Em1D/oXbn/AL/pR/wk2of9C7c/9/0o+r1O34oPbQ7nTUVzP/CTah/0Ltz/AN/0o/4SbUP+hduf+/6UfV6nb8UHtodzpqKyfD2tHVnu4nspbSW2ZVdHYN1GRyK1qylFxdmaRkpK6CiiipGFFFFABRRRQAUUUUAFFFFABRRRQAUUUUAFFFFABRRRQAV5f4Z/499Q/wCwpef+jmr1CvL/AAz/AMe+of8AYUvP/RzVz1+h6eX7T+X6mrSGlpDXLI9BCUHpRQelYyLQlFFFYyKQUhpaQ1jIaEpD1paQ9axZaCiiispDQlO8Hf8AJRbr/sEJ/wCjmppp3g7/AJKLdf8AYIT/ANHNXRl/+8RMcV/An6HoFFFFfTnzAUUUUAcPo3/Hzq//AGE5/wD0KtCs/Rv+PnV/+wnP/wChVoV6jOBBRRRSGFFFFABRRRQAUUUUAFFFFABRRRQBV07/AJH6z/7Bs3/oxK7KuN07/kfrP/sGzf8AoxK7KuXE/EvQ6KHwsKKKK5jYK5Cw/wCQzrf/AF+D/wBFrXX1yFh/yGdb/wCvwf8Aota8vMvjper/APSWduD+16fqi/RRRWB1hRRRQAUUUUAFFFFABRRRQAUUUUAFU4/+Rx0n/rhcfyWrlU4/+Rx0n/rhcfyWsa32P8Uf/SkD+GXo/wAjrKKKK+hPHCiiigDziT/kevE3/XW2/wDRIq5VOT/kevE3/XW2/wDRIq5XBLdn0Ufhj6L8kFNpTSVkykFJS0lYyLCiiisZDCm06m1jIoQ0UGisZFIKSlpDWUikVoP+R58Nf9drj/0S1el15pB/yPPhr/rtcf8Aolq9Lr38r/gfM8XNf4kfT9WFFFFekeWFY3jn/kTNZ/68pf8A0E1s1jeOf+RM1n/ryl/9BNTLZmtH+JH1Ry9h/wAg+2/64p/6CKmqGw/5B9t/1xT/ANBFTVyLY96W7CiiigQUUUUAFFFFABRRRQAUUUUAFFFFABWV4r/5Arf9fEP/AKMWtWsrxX/yBW/6+If/AEYtJ7FU/jR6hRRRXcfNhUGof8eFx/1yb+RqeoNQ/wCPC4/65N/I01uJ7HGeFf8AkWNL/wCvWP8AlWlWb4V/5FjS/wDr1j/lWlXqT+JnBHZBRRRUlBRRRQAUUUUAFFFFABRRRQAUUUUAL4N/5DWu/wDXWH/0CunrmPBv/Ia13/rrD/6BXT1x4n+I/l+R00fgQUUUVgahRRRQAUUUUAFFFFABRRRQAUUUUAFFFFABRRRQAUUUUAFeX+Gf+PfUP+wpef8Ao5q9Qry/wz/x76h/2FLz/wBHNXPX6Hp5ftP5fqatIaWkNcsj0UJQelFB6VjIpHB/FKbX49e8Ex6LqUFnHPrYjuFkjZvNHlOwBwRkYB49cHtWDoXiTW1k0rRfDdhpVrJq2s6xFI8/mMkXkyMfNxnJJPUZAyewrv8AxV4eh19dOZr66sbjTb1Ly2nt9u5XAIIIYEEFWIPHeqGkeCNM0zU9Ov4bq7eSwu726jVyuGa6OXBwOg7frmlzR5dTJwlzNo5TS/HPjJ7Ky1bULPRFsV14aHdxQ+YZJXM3leehPCjJB2HPGeaov8WdRmvLi+sbWC406DUGtF05LG5e6mjWTy2lWUL5YOQWC9MDk5ruB4G0waN/Zf2u88r+2v7Z3ZXd53m+bt6fdyMeuO9Vm+H9ml5N9l17XLPSri8N5NpVvcBIGlLb2wwG9VLclQwB59azcqfVC5Kvc7H+VIetKetIetcTOxBRRRWUhoSneDv+Si3X/YIT/wBHNTad4O/5KLdf9ghP/RzV0Zf/ALxExxX8CfoegUUUV9OfMBRRRQBw+jf8fOr/APYTn/8AQq0Kz9G/4+dX/wCwnP8A+hVoV6jOBBXIeKdd15vGFl4R8Mrp0N7LYPqFxd36O8cUSuEVVRSCzM3vgAV19c74o8KQ61qdnrFrq2oaLq1pE8Ed7YlN5icgtGyuCrLkAjI4PIqZXtoUjhnl8dXfxasI7eLRNO1h/C7/AGszPJPbxkXWAUC4J3cdegJ61PN8R9Vn8K+HtQ+0+HtBuNSWdbl7xpJ8SxOYysMKfPICQTnsMd663wz4J0rw/q9tqdlc30k0GntYn7RL5hkDS+a0jMeS5bPfGO1Zlv8ADOxspdMudI8Qazpl7p8M9ut1A0ZeWGaUyvGwZSB8x4IAI9ai0iro57Q/iL4q8R2fhaDSbbSLW+1e51C1uZriOUwobX/loiHD/N/dPIzUXjf4oax4d1DUGF54bmXTbiOKTTIkmnuZkJUM7SJ8kLfMSFboAMnmuu8M/DrR/D9xpM1nfalMdLub25g+0SBy7XX+s3tjJweQevPOaoar8KdN1Cz1fTf+Ei1620jVbp7yfT4JUESzswdnDbdxG4A7SSPai0rBeNx58ReM9Z1nWz4WtNFOn6JeiyeG9ZxNeyBVaTa4+WIANgEg5I5rlH8aeIvCb+NNS1O7tNRD+I4dN06AxSkQSSRRkFtuSY1XJKqMkg+tdtrHw9sdQ1HULiLW9Z0+01V0k1SxtJlSK8dQBuJxuQkABthGcUah8OdIvZtYMmoalHBqdxDeLDFIq/Y7qIKEnhbG5WwijBJHXjmhqQJo5Cb4o+ILXw9r0i2lnqN3py2slrepZXFrbXHmzCNo2WUAh1zngkEEV6to0erRaeia3PZT3wZvMe0jZIsZ4ADEngVy9z8Pbe/0rUbPWfEmu6rPqDQebdXEqbkWFw6KiKoRRkckLk5612rHcxb1NVFPqS7dBKKKKoRV07/kfrP/ALBs3/oxK7KuN07/AJH6z/7Bs3/oxK7KuXE/EvQ6KHwsKKKK5jYK5Cw/5DOt/wDX4P8A0WtdfXIWH/IZ1v8A6/B/6LWvLzL46Xq//SWduD+16fqi/RRRWB1nHfEPXvEGm6z4a0fw6mn/AGnWrua3eW9VmSFUhaTfhSCeR071xGtfFnW7fUtYSxhsJk0S4NpJZ/2fdSTajKiqZfLdFKR8khQc9OcV6lrGg2uqa3ourTTTJNo80k0CoRtcvGYyGyM4we2OawNU+HlrdalqNxZeIte0i01WUTalY2NwqRXD4ALAlS0ZYABihGa0i49TKSl0MTWPG3i++tvE+qeFLPSEsPDsB8yHUVkE9zN5AmZRt4jChgOc5IPStPwt4z1LVbnV454LdVstBstRjKg8yTRO7A+wKjFct8R/CPiS71PxFY6DpetQW2t2ywGTT9RhjtbhvK8vfcCT95GVGATH99QB1rqpvhrayrC8Wvavpssmkw6XqK2Miql5FGpVc7lJUjLcqQcGm+WxK5rnKaN4qv5tbn8XOtgt5N4Fsrwx3Fx5FssjTSE7mOdqjP14pLP4rawi+IYTdaLrL2Xh+bV7S6srWeCLfGcGI+Z98ZI+ZT9a6qf4U+H59I/sya71FoRo9tpKsJFDKkEhkjkBA++GOfTjpRcfDG1vrm+vNW8Ta9qd5faRLpM007x/6iQg5VVQKrAjqBznnNPmgHLMwtX1LxM2p6M+oroyazeaDqd1aXNukuLMCOJgmC3znnk+wxij4b+LtZ0fw/4Rh8WXlrcWOpeHpLtL5VZXE0KiRkcsTkmIk57lTXd3nhPT7vVNLv5prgtp1hPYRoCArxzKisW4znCDGMdTXE+Kfh9cXHhzw14AtotR1HTLO9jnbVbiaJDaW8ZOYMLhnLIdnTkE5NJOLVgcZJ3O88C6hqereEtO1XV7eO2u7yL7QYUBAjRiSinPcKVz75rapFVVUKihVAwAOwpayZstgqnH/wAjjpP/AFwuP5LVyqcf/I46T/1wuP5LWNb7H+KP/pSG/hl6P8jrKKKK+hPHCiiigDziT/kevE3/AF1tv/RIq5VOT/kevE3/AF1tv/RIq5XBLdn0Ufhj6L8kBptONNrJlIKzPFOoS6T4Y1XVIEV5bOzlnRW6FlUkA/lWnVLW9Pi1bRr3S7h3SG8t3gkZMblVlIJGe/NYvcp7HA3ni7xPp/hTRtS1XUPC2nTauFlWWUSlbdGiDBFjB3TPk9sACsJvF3inxRYeG5rC+sbCeLxW2m3TrbyiO6CRsytsYhlUg8q3fFd7qngm1uhoMtnq+paZfaHbm1tLu3KFzEUVWVgylTkKOccdqpQfDfTrbTTa2utaxHMNY/tlLtpEkmW4K7W5ZSGUjOQR347Uc0DFwqHKP8WtSmvbm9sLW3n0+31BrNdOWxuXup0STy3lWVV8sHOSF9Byc17B2yOh6Vxx+H1ml3N9k17XLLSri7+2T6XbzhIHlLbmIbG9VZuSoYA812JrnquLtymtJTV+YQ0UGiuWRugpKWkrKRSK0H/I8+Gv+u1x/wCiWr0uvNIP+R58Nf8AXa4/9EtXpde/lf8AA+Z4ua/xI+n6sKKKK9I8sKxvHP8AyJms/wDXlL/6Ca2axvHP/Imaz/15S/8AoJqZbM1o/wASPqjl7D/kH23/AFxT/wBBFTVDYf8AIPtv+uKf+gipq5Fse9LdhQBkgUUUCPH9U+LGpLqWqz6Za209lpl69oLD7DcyXN4EYK7JKi+Whznapz05xmtrWvG3iCx8cweDIbGze+1cx3OkXD8IloBmczLnPmJg4A+9uHoa1bv4f2kt9eva6/rmnafqFz9qvdNtJwkM0uQWIbG9NxA3BSM0upfD3SNQudQvri8vjql1dQ3MN+GUTWflf6tITjAQfNkHO7cc5q7owtUOK/4TDxD4Vm8aX2pXlrqO7xHFp2nRGGTbC7xpgkLk7AvO1RkkH1qzJ8TNfg0HXXW0tNQvNPW1ktbxbOe2trjzZljaNllGQ65zwTwQa6zUPh9pd9caxJNqOpKmqXMV6UjdV+zXcYAWeJgNyt8o4yR7Uk3gGC802/tdX8Ra3qk980HmXNxKm5FhkDqqIqhFGRyQMnPWi6FyzRz/AI18aeLPCt5bWOqXGhWYa2M39pT2VwbO4l3EC33LnyiABlmPfNN1Txm2l69quqQaTYz382j6YIDHcsySy3EzoiFx8pjUnO4DJGa7DxN4VbWdQe9t/EWs6Q81v9luY7SRDHPHk8FHVgG5I3DB5rPHw18NC0uLJVuktJtNttPSJZceSkDF43RuocMc5z2FF0NxnfQxvEvjTxZ4Sh1Wz1y30i9vo9Hl1Swms1eONzG6q8TqxJH31wwPNbGga/4mTxnZ6F4ii0l49S0x7+2ayDqYChUNG+4/Nw4wwx0PFJN8OrG8tNTXWNd1jVry/sTp5vLl08yCAsGKxhVCgkgEkgk45refQLVvEmna8Zp/tFhYyWUaZGxkcqSTxnPyCldDSnc16KKKk2CsrxX/AMgVv+viH/0YtatZXiv/AJArf9fEP/oxaT2Kp/Gj1Ciiiu4+bCoNQ/48Lj/rk38jU9Qah/x4XH/XJv5GmtxPY4zwr/yLGl/9esf8q0qzfCv/ACLGl/8AXrH/ACrSr1J/EzgjsgrzXxaviST436XD4bk06GZvDc/mTXwd44x9oXGEUgsSeOvAzXpVct4n8GJrPiW18R22v6vo2pWtk9nFLZMmPLZ9zZV1IJyB16VnJNouLOZ0fx94k8SXGnaBo1lpdhrrLdnUprrfLb2/2aURN5ajBfcxGMkYHWiy8e+JNUvbTwtZWelWniY313aXk0u+S0iW2VGaVFGGbcJEwpPGTnpW3/wrjSbay0uPRdS1TR77TBKIdQt5VaeQStul83eCsm9vmOR15GKB8ONJh02zisNT1Wy1OzupbxNWjlVrp5pRiVnLAqwcAAqRjgY6VNpFXicf4K8Qa9oOo6rcaxDZCG68ayWOqNEzMkJkiQRSRk8hS+0EH+9XovgfWrrxBDqWoSRxR2A1GW308qOZIozsMhPfLh8ewFcj4i8DTaV8Ptc8OaJBqviC78R3rSzXV1dRq1tM4X/SGY4+VSoICgnOAOK77w5pdvoWgafo9rzDZW6QqT1baMEn3JyfxpxTQpWPPPDPxF1q98fQ6Hqh0fTpJb2W3bSbmKaC8ijUtsljkceXPuAB2r2bjpXPeE9Y1o6t4EubG4stM0Y2erT3NgiSOGEUh3HJbkkdM5wSa9Ag+Htmuq2Vxda/rd/Yafffb7LTbqZXignySCH2+YQCThS2BRYfDvTLBNAFnqeoxtorXHlsdjfaIp2LSxSArjac9RgjHWlaQ7o5Dwh8WNW1rUdEuWtLafT9ZuFjFnb2F0J7GN87JXmZfLcdN2MAZ4JxXsVcZofw+tdIubFIPEWvyaTp0plsdJe5At4DzgZADui5OFZiB+FdnVRvbUmVugUUUVQhfBv/ACGtd/66w/8AoFdPXMeDf+Q1rv8A11h/9Arp648T/Efy/I6aPwIKKz9S02W81PTbyPVL60Sykd3t4WUR3QZCoWQEEkDO4YI5ArPg8OXUUNnG3ijW5Db6i96zvImZkYsRbv8ALzENwAAwflHNYGp0FFUNF06XTvtvm6ne3/2m7kuF+0sp8hWxiJMAYRccA5PJ5q/QAUUUUAFFFFABRRRQAUUUUAFFFFABRRRQAUUUUAFeX+Gf+PfUP+wpef8Ao5q9Qrynw9d2cMWoRzXltG41S8yrzKp/1zdia56/Q9PLk2p/L9TbpDVf+0NP/wCghZ/+BCf40h1DT/8AoIWf/gQn+NckmekovsWKD0qv/aGn/wDQQs//AAIT/GkOoaf/ANBCz/8AAhP8aykUovsWKKrf2hp//QQs/wDwIT/Gj+0NP/6CFn/3/T/GsWUovsWaQ1X/ALQ0/wD6CFn/AN/0/wAaQ6hp/wD0ELP/AL/r/jWMhqL7FikPWq/2/T/+ghZ/9/0/xoN/p/8Az/2f/f8AX/Gsmi0mWKKrfb9P/wCf+0/7/r/jR9v0/wD5/wC0/wC/6/41jJDSZYp3g7/kot1/2CE/9HNVT+0NP/5/7T/v+v8AjU/giaGf4h3TQTRSqNJQEo4YA+cfSujL1/tETHFp+wn6HolFFFfTny4UUUUAcPo3/Hzq/wD2E5//AEKtCsrS7m2iu9XWW5gjb+05+HkVT973NXvttj/z/Wn/AH/X/GvVaZ56ZPRUH22x/wCf60/7/r/jR9tsf+f60/7/AK/40rMd0T0VB9tsf+f60/7/AK/40fbbH/n+tP8Av+v+NFmF0T0VB9tsf+f60/7/AK/40fbbH/n+tP8Av+v+NFmF0T0VB9tsf+f60/7/AK/40fbbH/n+tP8Av+v+NFmF0T0VB9tsf+f60/7/AK/40fbbH/n+tP8Av+v+NFmF0T0VB9tsf+f60/7/AK/40fbbH/n+tP8Av+v+NFmF0M07/kfrP/sGzf8AoxK7KuK0maGbx7aGGaKUDTZs7HDY/eJ6V2tcmK+Jeh00PhYUUUVzGwVyFh/yGdb/AOvwf+i1rr64y0ngi1rWxLPFGTeDAdwD9xfWvJzOSUqTb6v/ANJZ3YJfF6fqjToqH7ZZ/wDP5bf9/V/xo+2Wf/P5bf8Af1f8a5vaw/mR18r7E1FQ/bLP/n8tv+/q/wCNH2yz/wCfy2/7+r/jR7WH8yDlfYmoqH7ZZ/8AP5bf9/V/xo+2Wf8Az+W3/f1f8aPaw/mQcr7E1FQ/bLP/AJ/Lb/v6v+NH2yz/AOfy2/7+r/jR7WH8yDlfYmoqH7ZZ/wDP5bf9/V/xo+2Wf/P5bf8Af1f8aPaw/mQcr7E1FQ/bLP8A5/Lb/v6v+NH2yz/5/Lb/AL+r/jR7WH8yDlfYmqnH/wAjjpP/AFwuP5LU32yz/wCfy2/7+r/jVa3mhl8Y6V5U0cmILjOxw2OF9Kyq1INwSf2o/wDpSBp8svR/kdfRRRX0h4wUUUUAecSf8j14m/6623/okVcrOurm2g8d+JRPcwQkyW2BJIq5/cj1NWP7Q0//AKCFn/4EJ/jXny3Z9HGL5Y6dF+SLJptQHUNP/wCghZ/+BCf40n9oaf8A9BCz/wDAhP8AGsmy1F9ixSVX/tDT/wDoIWf/AIEJ/jSf2hp//QQs/wDwIT/GsZFcr7Fmiq39oaf/ANBCz/7/AKf40f2hp/8A0ELP/v8Ap/jWUh8r7Fmm1B/aGn/9BCz/AO/6f40n9oaf/wBBCz/7/p/jWLK5X2JzRVc3+n/9BCz/AO/6f40n2/T/APn/ALT/AL/r/jWMkVZlmkqv9v0//n/tP+/6/wCNB1DT/wDn/tP+/wCv+NZSTKSYkH/I8+Gv+u1x/wCiWr0uvL7K5tp/HXhsQXMMpEtxkRyBsfuW9K9Qr6DK/wCB8zxM2/iR9P1YUUUV6J5YVjeOf+RM1n/ryl/9BNbNY3jn/kTNZ/68pf8A0E1Mtma0f4kfVHL2H/IPtv8Arin/AKCKmqhY39gLC2Bv7MEQpkGdPQe9Tf2hp/8A0ELP/wACE/xrjT0PflF3ehZoqt/aGn/9BCz/APAhP8aP7Q0//oIWf/gQn+NO4uWXYs0VW/tDT/8AoIWf/gQn+NH9oaf/ANBCz/8AAhP8aLhyy7Fmiq39oaf/ANBCz/8AAhP8aP7Q0/8A6CFn/wCBCf40XDll2LNFVv7Q0/8A6CFn/wCBCf40f2hp/wD0ELP/AMCE/wAaLhyy7Fmiq39oaf8A9BCz/wDAhP8AGj+0NP8A+ghZ/wDgQn+NFw5ZdizRVb+0NP8A+ghZ/wDgQn+NH9oaf/0ELP8A8CE/xouHLLsWayvFf/IFb/r4h/8ARi1c/tDT/wDoIWf/AIEJ/jWZ4nvLOTSDHHeW0jm4hwqTKSf3i9gaTehdOL5loer0UUV3HzIVBqH/AB4XH/XJv5Gp6g1D/jwuP+uTfyNNbiexxnhX/kWNL/69Y/5VpVjeF7yzXw1piteWysLVAQZlBHH1rS+22P8Az/Wn/f8AX/GvVmnzM4ItWRPRUH22x/5/rT/v+v8AjR9tsf8An+tP+/6/41NmO6J6Kg+22P8Az/Wn/f8AX/Gj7bY/8/1p/wB/1/xoswuieioPttj/AM/1p/3/AF/xo+22P/P9af8Af9f8aLMLonoqD7bY/wDP9af9/wBf8aPttj/z/Wn/AH/X/GizC6J6Kg+22P8Az/Wn/f8AX/Gj7bY/8/1p/wB/1/xoswuieioPttj/AM/1p/3/AF/xo+22P/P9af8Af9f8aLMLoseDf+Q1rv8A11h/9Arp65bwTJHJq+uPFIkimWLDIwIPyeorqa4sT/Efy/I6qPwIKKKKwNQooooAKKKKACiiigAooooAKKKKACiiigAooooAKKKKACsi40HQ5p3ll0bTpJHYszNaoSxPUk4oorKrsjtwW7I/+Ed8P/8AQD0z/wABE/wo/wCEd8P/APQD0z/wET/CiisT0A/4R3w//wBAPTP/AAET/Cj/AIR3w/8A9APTP/ARP8KKKAD/AIR3w/8A9APTP/ARP8KP+Ed8P/8AQD0z/wABE/woopgH/CO+H/8AoB6Z/wCAif4Uf8I74f8A+gHpn/gIn+FFFAB/wjvh/wD6Aemf+Aif4Uf8I74f/wCgHpn/AICJ/hRRQAf8I74f/wCgHpn/AICJ/hR/wjvh/wD6Aemf+Aif4UUUAH/CO+H/APoB6Z/4CJ/hVzS9N02xd2sdPtLVmGGMMKoSPfAooqobmOI/hsv0UUV0HkBRRRQBm3OkaTNO8s2l2UkjHLM8Ckk+5IqP+w9F/wCgPp//AIDJ/hRRXox2RxvcP7D0X/oD6f8A+Ayf4Uf2Hov/AEB9P/8AAZP8KKKYg/sPRf8AoD6f/wCAyf4Uf2Hov/QH0/8A8Bk/woooAP7D0X/oD6f/AOAyf4Uf2Hov/QH0/wD8Bk/woooAP7D0X/oD6f8A+Ayf4Uf2Hov/AEB9P/8AAZP8KKKAD+w9F/6A+n/+Ayf4Uf2Hov8A0B9P/wDAZP8ACiigA/sPRf8AoD6f/wCAyf4Uf2Hov/QH0/8A8Bk/woooAs6fp2n2cpktLG1t3IwWihVSR+Aq7RRXFW+M6aXwhRRRWRoFUbjTdOmmaWbT7WSRurPCpJ/EiiivMzT+GvU6cL8TI/7I0n/oF2X/AIDr/hR/ZGk/9Auy/wDAdf8ACiivEO8P7I0n/oF2X/gOv+FH9kaT/wBAuy/8B1/woooAP7I0n/oF2X/gOv8AhR/ZGk/9Auy/8B1/woooAP7I0n/oF2X/AIDr/hR/ZGk/9Auy/wDAdf8ACiigA/sjSf8AoF2X/gOv+FH9kaT/ANAuy/8AAdf8KKKAD+yNJ/6Bdl/4Dr/hR/ZGk/8AQLsv/Adf8KKKAD+yNJ/6Bdl/4Dr/AIVNZ6fYW03mW9lbQvjG6OJVOPqBRRW+F/jR9TOr8DLlFFFfTnlhRRRQBmaho+k3lyZ7vS7G4lIGXlt1Zj+JFV/+Ed8P/wDQD0z/AMBE/wAKKK5Zbs9ml/Dj6B/wjvh//oB6Z/4CJ/hR/wAI74f/AOgHpn/gIn+FFFI0D/hHfD//AEA9M/8AARP8KP8AhHfD/wD0A9M/8BE/woopgH/CO+H/APoB6Z/4CJ/hR/wjvh//AKAemf8AgIn+FFFAB/wjvh//AKAemf8AgIn+FH/CO+H/APoB6Z/4CJ/hRRQAf8I74f8A+gHpn/gIn+FH/CO+H/8AoB6Z/wCAif4UUUAH/CO+H/8AoB6Z/wCAif4Uf8I74f8A+gHpn/gIn+FFFAFiw0fSLO5We00uxt5R0eK3RWH4gVp0UVtT2PNxnxoKKKK0OQKZMiSRPHIiujAhlYZBHoRRRQyo7ox/+Ed8P/8AQD0z/wABE/wo/wCEd8P/APQD0z/wET/CiiuQ9sP+Ed8P/wDQD0z/AMBE/wAKP+Ed8P8A/QD0z/wET/CiigA/4R3w/wD9APTP/ARP8KP+Ed8P/wDQD0z/AMBE/wAKKKAD/hHfD/8A0A9M/wDARP8ACj/hHfD/AP0A9M/8BE/woooAP+Ed8P8A/QD0z/wET/Cj/hHfD/8A0A9M/wDARP8ACiigA/4R3w//ANAPTP8AwET/AAo/4R3w/wD9APTP/ARP8KKKAD/hHfD/AP0A9M/8BE/wo/4R3w//ANAPTP8AwET/AAoooAP+Ed8P/wDQD0z/AMBE/wAKdFoGhRyrJHoumo6kFWW1QEH16UUUIT2Nmiiius8MKRgCpBAII5BoooQGUdD0Ukk6Rp5P/Xsn+FH9h6L/ANAfT/8AwGT/AAoor0jiD+w9F/6A+n/+Ayf4Uf2Hov8A0B9P/wDAZP8ACiigA/sPRf8AoD6f/wCAyf4Uf2Hov/QH0/8A8Bk/woooAP7D0X/oD6f/AOAyf4Uf2Hov/QH0/wD8Bk/woooAP7D0X/oD6f8A+Ayf4Uf2Hov/AEB9P/8AAZP8KKKAD+w9F/6A+n/+Ayf4Uf2Hov8A0B9P/wDAZP8ACiigA/sPRf8AoD6f/wCAyf4Uf2Hov/QH0/8A8Bk/woooAu6fZ2lmjJaWsFurHJEUYUE/hVmiiuGr8bOqHwoKKKKzLCiiigAooooAKKKKAP/Z&quot;&gt;" style="text;whiteSpace=wrap;html=1;" vertex="1" parent="1">
          <mxGeometry x="-90" y="310" width="40" height="40" as="geometry" />
        </mxCell>
      </root>
    </mxGraphModel>
  </diagram>
</mxfile>
